<?xml version="1.0" encoding="utf-8"?>
<!-- Generator: Adobe Illustrator 16.0.0, SVG Export Plug-In . SVG Version: 6.00 Build 0)  -->
<!DOCTYPE svg PUBLIC "-//W3C//DTD SVG 1.0//EN" "http://www.w3.org/TR/2001/REC-SVG-20010904/DTD/svg10.dtd" [
	<!ENTITY ns_flows "http://ns.adobe.com/Flows/1.0/">
	<!ENTITY ns_extend "http://ns.adobe.com/Extensibility/1.0/">
	<!ENTITY ns_ai "http://ns.adobe.com/AdobeIllustrator/10.0/">
	<!ENTITY ns_graphs "http://ns.adobe.com/Graphs/1.0/">
]>
<svg version="1.0" xmlns:x="&ns_extend;" xmlns:i="&ns_ai;" xmlns:graph="&ns_graphs;"
	 xmlns="http://www.w3.org/2000/svg" xmlns:xlink="http://www.w3.org/1999/xlink" xmlns:a="http://ns.adobe.com/AdobeSVGViewerExtensions/3.0/"
	 x="0px" y="0px" width="1400px" height="980px" viewBox="0 0 1400 980" enable-background="new 0 0 1400 980" xml:space="preserve"
	>
<g id="Background">
	<rect fill="#FFFEFD" width="1400" height="980"/>
</g>
<g id="Elements">
	<g>
		<g>
			<g>
				<g>
					<g>
						<g>
							<g>
								<g>
									<path fill="#F5F6F7" d="M1231.6,884.4c0-59.8-7.2-119.4-21.6-177.6c-5.5-22.1-17.8-45.9-19.9-68.2
										c-2.3-24.4,11.7-46.9,13.3-70.9c4.1-60.3-14.7-125.9-62.4-169.2c-19-17.2-41.4-31.3-67.7-36.4c-27.8-5.3-66.6,6.9-92-2.8
										c-24.1-9.2-41.7-29.5-63.7-41.9c-25.9-14.5-56.9-24.6-86-32.1c-38.9-10-79.9-5.3-119.2-12.8
										c-35.6-6.8-64.4-30.6-101.6-30.6c-55.5,0-102.9,42.1-121.7,101.4c-9.5,29.7-61.1,55.7-88.5,70.1
										c-38.8,20.5-89.4,15.1-124.5,41.9c-47.3,36.2-68.9,93.3-68.9,148.9c0,44.1,29.6,83.7,28.1,128.3
										c-1.7,50.6-14.9,100.5-14.9,151.8C220.5,884.4,1231.6,884.4,1231.6,884.4z"/>
									<ellipse fill="#E5E9EA" cx="715.7" cy="888.6" rx="512.5" ry="26.8"/>
								</g>
							</g>
						</g>
						<g>
							<g>
								<path fill="#B0D3D5" d="M1232.9,630.9c-6-3.6-13.8-1.8-19.7,1c-9.2,4.5-16.6,12.5-22.7,20.7c-4.1,5.5-7.5,11.5-9.5,18.3
									c-1.3,1.4-2.5,3-3.6,4.6l0.2,0.1c-0.4,0.7-2.3,3.7-5.3,8.4c-0.6-2.1-0.6-5.5,0.5-11.3c3.7-6.5,9.5-11.9,14-18
									c6.8-9.1,14.7-19.7,14.2-31.6c0-5.2-2.5-10.5-8.5-10.3c-7,0.2-12.6,5.9-16.1,11.5c-5.3,8.7-7.3,19.5-7.9,29.7
									c-0.5,6.9-0.1,13.8,1.9,20.6c-0.8,4.7-0.8,8.7,0.3,11.2l0.7-0.3c-7,11-19.5,29.9-35.3,51.7c-0.5-2.1-0.5-5.5,0.6-10.8
									c3.7-6.5,9.5-11.9,14-18c6.8-9.1,14.7-19.7,14.2-31.6c0-5.2-2.5-10.5-8.5-10.3c-6.9,0.2-12.6,5.9-16.1,11.5
									c-5.3,8.7-7.3,19.5-7.9,29.7c-0.5,6.9-0.1,13.8,1.9,20.6c-0.8,4.7-0.8,8.6,0.3,11.1c-5.1,6.9-10.4,14.1-16.1,21.4
									c-4.2,5.4-8.6,11-13.2,16.7c3.8-7.4,7.3-15.4,10.5-24c6.5-8.8,13.5-18.8,13-30c0-2.5-0.6-4.9-1.8-6.9
									c5.8-23.1,9.9-47.3,12.9-69.4c2.6-0.8,5.6-3.3,8.7-6.8c6.5-2.8,12.1-6.9,17.1-11.7c7.4-7,14.5-15.4,17.8-25
									c2.1-6.2,2.9-14.2-1.4-19.7c-3.6-4.7-9.3-3.3-13.3,0c-9.5,7.2-12.6,20-15.3,31.1c-1.9,7.3-2.3,15.2-4.9,22.2
									c-3.6,4.5-6.3,6.6-8.2,7.5c0.5-4.1,1-8.1,1.5-12.1c2.2-18.5,3.7-36.1,4.7-51.4c2.1-1.6,4.1-4.4,6.1-8.1
									c5.7-4.2,10.2-9.5,13.9-15.3c5.6-8.5,10.5-18.3,11.5-28.5c0.6-6.5-0.5-14.5-5.9-18.9c-4.6-3.8-9.8-1.1-13,3.1
									c-7.6,9.2-7.6,22.4-7.7,33.8c-0.1,7.6,1.3,15.3,0.3,22.8c-1.9,4-3.6,6.5-5.1,8.1c1.9-29.2,2-49.1,2-49.4l-0.2,0
									c0.1-2.5,0.6-5.1,1.1-7.4c3.9-6.4,9.9-11.6,14.5-17.6c7.1-8.9,15.2-19.3,15.1-31.2c0.1-5.2-2.2-10.6-8.2-10.5
									c-7,0-12.8,5.6-16.4,11c-5.6,8.5-7.8,19.3-8.8,29.4c-0.7,6.8-0.5,13.8,1.3,20.6c-0.4,1.9-0.6,3.8-0.7,5.8l0.2,0
									c0,0.8,0,4.3-0.2,10c-1.5-1.5-3.4-4.4-5.4-9.9c-0.2-7.5,2.1-15.1,2.7-22.6c1.2-11.3,2.5-24.5-4.1-34.4
									c-2.7-4.4-7.6-7.7-12.6-4.4c-5.9,3.8-7.8,11.6-7.9,18.1c-0.1,10.2,3.8,20.5,8.5,29.5c3.1,6.2,7,11.9,12.2,16.7
									c1.8,4.4,3.8,7.8,6,9.4l0.4-0.6c-0.4,13-1.3,35.7-3.7,62.5c-1.5-1.6-3.2-4.4-5-9.6c-0.2-7.5,2.1-15.1,2.7-22.6
									c1.1-11.3,2.5-24.5-4.1-34.4c-2.7-4.4-7.6-7.7-12.6-4.4c-5.9,3.8-7.8,11.6-7.9,18.1c-0.1,10.2,3.8,20.5,8.5,29.5
									c3.1,6.2,7,11.9,12.2,16.7c1.8,4.4,3.7,7.8,5.9,9.4c-0.8,8.5-1.7,17.5-2.7,26.6c-1.1,9.3-2.4,19.2-3.9,29.3
									c-1.5-1.6-3.2-4.4-5.1-9.6c-0.2-7.5,2.1-15.1,2.7-22.6c1.1-11.3,2.5-24.5-4.1-34.4c-2.7-4.4-7.6-7.7-12.6-4.4
									c-5.9,3.8-7.8,11.6-7.9,18.1c-0.1,10.2,3.8,20.5,8.5,29.5c3.1,6.2,7,11.9,12.2,16.7c1.7,4.3,3.7,7.6,5.8,9.3
									c-1.8,11.5-3.9,23.4-6.5,35.1c-1.9-1-4.4-3.4-7.8-8.8c-1.8-7.3-1.2-15.2-2.1-22.7c-1.3-11.3-2.8-24.4-11.3-32.8
									c-3.6-3.8-9-5.9-13.2-1.7c-4.9,4.9-5.2,13-3.9,19.4c2.1,10,8.1,19.2,14.5,27.1c4.3,5.4,9.4,10.2,15.5,13.8
									c2.7,4,5.3,6.9,7.9,7.9c-1,4.4-2,8.7-3,13.1c-1.3-1-2.9-1.6-5-1.5c-6.9,0.2-12.6,5.9-16.1,11.5c-5.3,8.7-7.3,19.5-7.9,29.7
									c-0.5,6.9-0.1,13.8,1.9,20.6c-0.7,4.4-0.8,8.1,0.1,10.6c-0.4,0.6-0.8,1.2-1.2,1.9c-12.9,15.4-27.2,31.1-41.9,45
									c-0.5-2.1-0.5-5.5,0.6-11c3.7-6.5,9.5-11.9,14-18c6.8-9.1,14.7-19.7,14.2-31.6c0-5.2-2.5-10.5-8.5-10.3
									c-7,0.2-12.6,5.9-16.1,11.5c-5.3,8.7-7.3,19.5-7.9,29.7c-0.5,6.9-0.1,13.8,1.9,20.6c-0.7,4.5-0.8,8.3,0.2,10.8
									c-7.1,6.6-14.2,12.9-21.4,18.5c0.7,0.4,1.4,0.7,2,1.1c12.8-10,25.5-22,37.6-34.7c0.7,0.1,1.5,0.2,2.3,0.2
									c2.3-0.1,5.1-0.7,8.2-1.7c7,0.9,13.9,0.3,20.7-1.2c9.9-2.2,20.3-5.7,28.1-12.3c5-4.2,9.8-10.7,8.9-17.6
									c-0.6-5.9-6.3-7.6-11.4-6.9c-11.9,1.3-21.1,10.7-29.1,18.8c-5.4,5.3-9.8,11.9-15.7,16.5c-4.8,1.7-8,2.3-10.1,2.3
									c8-8.4,15.7-17.1,23-25.7l0.3,0.2c0.6-0.9,1.3-1.9,1.9-2.8c4.3-5.1,8.4-10.2,12.4-15.1c0.8,0.2,1.7,0.3,2.7,0.3
									c2.3-0.1,5.1-0.7,8.2-1.7c7,0.9,13.9,0.3,20.7-1.2c9.9-2.2,20.3-5.7,28.1-12.3c5-4.2,9.8-10.7,8.9-17.6
									c-0.6-5.9-6.3-7.6-11.4-6.9c-11.9,1.3-21.1,10.7-29.1,18.8c-5.4,5.3-9.8,11.9-15.7,16.5c-5.4,2-8.8,2.4-10.9,2.2
									c2.6-3.2,5.1-6.4,7.5-9.6c11.4-14.8,21.7-29.1,30.5-41.6c2.6-0.3,5.8-1.7,9.4-3.9c7-0.7,13.6-2.9,19.8-6
									c9.1-4.4,18.5-10.3,24.5-18.5c3.9-5.3,7-12.7,4.6-19.2c-2-5.6-7.9-5.9-12.7-4c-11.2,4-18.1,15.3-24,25
									c-4,6.4-6.8,13.8-11.4,19.7c-3.7,2.4-6.5,3.7-8.5,4.3c16.6-24,27-41.1,27.2-41.3l-0.1-0.1c1.4-2.1,3.1-4,4.8-5.7
									c6.6-3.5,14.4-4.9,21.5-7.6c10.7-4,23-8.7,29-19C1237.3,639.7,1238,633.9,1232.9,630.9z M1100.5,773.1
									c2.8-5,6.9-9.3,10.6-13.8c-3.5,8.6-7.2,16.6-11.4,23.7C1099.4,780.9,1099.6,777.7,1100.5,773.1z"/>
								<g>
									<path fill="#FEB238" d="M1052.8,858.7l6.3,0.7c2.5-3.4,4.8-7.3,7.2-10.6c4.1-5.5,8.3-10.8,12.6-16
										c9.6-11.4,19.9-19.8,35.1-21.8c2.3-0.3,4.5-0.7,6.3-2.1c1.9-1.4,3.4-3.8,3.3-6.2c-0.1-1.8-2.2-2.4-3.9-2.4
										c-0.2-0.1-0.5-0.2-0.7-0.1c-0.3,0.1-0.6,0.2-0.9,0.3c-1.1,0.2-2.1,0.7-3.1,1.1c-1.4,0.6-2.8,1.1-4.1,1.8
										c-6.2,3.2-11.7,7.2-17.1,11.7c-2.8,2.4-5.6,4.8-8.2,7.4c2.5-3.4,5-6.8,7.2-10.5c2.7-4.6,5.2-9.3,7.4-14.1
										c3-6.3,5.5-12.7,6.9-19.5c0.3-1.5,0.5-2.9,0.7-4.4c0.1-1.1,0.3-2.2,0.2-3.2c0.1-0.3,0.1-0.6,0.1-0.9c0-0.2-0.1-0.5-0.3-0.6
										c-0.4-1.7-1.5-3.5-3.3-3.1c-2.4,0.5-4.3,2.6-5.2,4.8c-0.9,2.2-0.7,4.4-0.4,6.7c2,15.1-3.5,27.3-12,39.5
										c-2,2.9-4.3,5.7-6.3,8.6c-0.7,1-1.4,1.9-2.1,2.9c0.6-1.1,1.1-2.3,1.7-3.4c3-6.3,5.5-12.7,6.9-19.5c0.3-1.5,0.5-2.9,0.7-4.4
										c0.1-1.1,0.3-2.2,0.2-3.2c0.1-0.3,0.1-0.6,0.1-0.9c0-0.2-0.1-0.5-0.3-0.6c-0.4-1.7-1.5-3.5-3.3-3.1
										c-2.4,0.5-4.3,2.6-5.2,4.8c-0.9,2.1-0.7,4.4-0.4,6.6c1.9,14.9-3.3,27-11.6,39c-2,2.4-4,4.8-6,7.3c-1.6,2-3.2,4-4.6,6.1
										c-0.1,0.2-0.3,0.4-0.4,0.6c0.1-0.2,0.2-0.4,0.3-0.6c3-6.3,5.5-12.7,6.9-19.5c0.3-1.5,0.5-2.9,0.7-4.4
										c0.1-1.1,0.3-2.2,0.2-3.2c0.1-0.3,0.1-0.6,0.1-0.9c0-0.2-0.1-0.5-0.3-0.6c-0.4-1.7-1.5-3.5-3.3-3.1
										c-2.4,0.5-4.3,2.6-5.2,4.8c-0.9,2.2-0.7,4.4-0.4,6.7C1056.4,844.6,1055.3,851.9,1052.8,858.7z"/>
									<path fill="#FEB238" d="M1086.9,849.1c2.2-0.3,4.5-0.7,6.3-2.1c1.9-1.4,3.4-3.8,3.3-6.2c-0.1-1.8-2.2-2.4-3.9-2.4
										c-0.2-0.1-0.5-0.2-0.7-0.1c-0.3,0.1-0.6,0.2-0.9,0.3c-1.1,0.2-2.1,0.7-3.1,1.1c-1.4,0.6-2.8,1.1-4.1,1.8
										c-6.2,3.2-11.7,7.2-17.1,11.8c-2.4,2.1-4.8,4.2-7.2,6.4l3,0.4C1069.6,854.3,1077.3,850.4,1086.9,849.1z"/>
									<path fill="#FEB238" d="M1101.5,786.2c0-0.1,0-0.2,0-0.3c0,0,0.1,0,0.1,0C1101.6,786,1101.5,786.1,1101.5,786.2z"/>
									<path fill="#FEB238" d="M1104.9,810.9c0.1-0.1,0.1-0.1,0.2-0.2c0,0,0,0.1,0,0.1C1105.1,810.9,1105,810.9,1104.9,810.9z"/>
									<path fill="#FEB238" d="M1077.9,849c0.1-0.1,0.1-0.1,0.2-0.2c0,0,0,0.1,0,0.1C1078.1,848.9,1078,848.9,1077.9,849z"/>
									<path fill="#FEB238" d="M1081.5,813.3c0-0.1,0-0.2,0-0.3c0,0,0.1,0,0.1,0C1081.5,813.2,1081.5,813.3,1081.5,813.3z"/>
									<path fill="#FEB238" d="M1057.8,845.2c0-0.1,0-0.2,0-0.3c0,0,0.1,0,0.1,0C1057.9,845.1,1057.9,845.1,1057.8,845.2z"/>
									<path fill="#FEB238" d="M1126.3,859.6c-0.1-0.2-0.3-0.4-0.5-0.5c-0.3-0.1-0.6-0.1-0.9-0.2c-1-0.3-2.1-0.4-3.2-0.5
										c-1.5-0.2-3-0.3-4.5-0.4c-7-0.2-13.8,0.7-20.6,2c-3.6,0.7-7.1,1.5-10.6,2.5l7.5,0.9c7.4-0.9,14.9-0.2,22.6,2.8
										c2.1,0.8,4.3,1.5,6.6,1.2c2.3-0.3,4.8-1.7,5.9-3.9C1129.4,861.9,1127.8,860.4,1126.3,859.6z"/>
									<path fill="#FEB238" d="M1168.4,839.4c-0.1-0.2-0.3-0.4-0.5-0.5c-0.3-0.1-0.6-0.1-0.9-0.2c-1-0.3-2.1-0.4-3.2-0.5
										c-1.5-0.2-3-0.3-4.5-0.4c-7-0.2-13.8,0.7-20.6,2c-3.6,0.7-7.2,1.5-10.8,2.5c3.8-1.8,7.7-3.6,11.3-5.7
										c4.6-2.7,9-5.6,13.3-8.7c5.7-4.1,10.9-8.5,15.5-13.7c1-1.1,1.9-2.3,2.8-3.5c0.6-0.9,1.3-1.7,1.8-2.7
										c0.2-0.2,0.4-0.5,0.5-0.8c0.1-0.2,0.1-0.5,0-0.7c0.4-1.7,0.4-3.8-1.4-4.3c-2.3-0.7-5,0.2-6.8,1.7c-1.8,1.5-2.8,3.5-3.6,5.6
										c-5.6,14.2-16.3,22.2-29.6,28.8c-3.2,1.6-6.5,2.9-9.7,4.5c-1.1,0.5-2.2,1-3.2,1.5c1-0.7,2.1-1.5,3.1-2.2
										c5.7-4.1,10.9-8.5,15.5-13.7c1-1.1,1.9-2.3,2.8-3.5c0.6-0.9,1.3-1.7,1.8-2.7c0.2-0.2,0.4-0.5,0.5-0.8
										c0.1-0.2,0.1-0.5,0-0.7c0.4-1.7,0.4-3.8-1.4-4.3c-2.3-0.7-5,0.2-6.8,1.7c-1.8,1.5-2.8,3.5-3.6,5.6c-5.5,14-16,22-29,28.5
										c-2.9,1.1-5.9,2.3-8.8,3.5c-2.4,1-4.7,2-7,3.1c-0.2,0.1-0.4,0.2-0.7,0.3c0.2-0.1,0.4-0.3,0.6-0.4
										c5.7-4.1,10.9-8.5,15.5-13.7c1-1.1,1.9-2.3,2.8-3.5c0.6-0.9,1.3-1.7,1.8-2.7c0.2-0.2,0.4-0.5,0.5-0.8
										c0.1-0.2,0.1-0.5,0-0.7c0.4-1.7,0.4-3.8-1.4-4.3c-2.3-0.7-5,0.2-6.8,1.7c-1.8,1.5-2.8,3.5-3.6,5.6
										c-3.7,9.5-9.7,16.2-17.3,21.6l8,0.9c4.4-1.8,8.7-4.5,12.9-6.4c6.2-2.8,12.5-5.5,18.8-7.9c13.9-5.3,27-7.7,41.2-2.1
										c2.1,0.8,4.3,1.5,6.6,1.2c2.3-0.3,4.8-1.7,5.9-3.9C1171.4,841.7,1169.9,840.2,1168.4,839.4z"/>
									<path fill="#FEB238" d="M1159.2,818.2c0-0.1,0.1-0.2,0.1-0.2c0,0,0.1,0,0.1,0.1C1159.4,818.1,1159.3,818.2,1159.2,818.2z"
										/>
									<path fill="#FEB238" d="M1150.3,841.5c0.1,0,0.2,0,0.3,0c0,0,0,0.1,0,0.1C1150.5,841.6,1150.4,841.5,1150.3,841.5z"/>
									<path fill="#FEB238" d="M1128.6,832.3c0-0.1,0.1-0.2,0.1-0.2c0,0,0.1,0,0.1,0.1C1128.7,832.2,1128.7,832.3,1128.6,832.3z"
										/>
									<path fill="#FEB238" d="M1092.5,848.8c0-0.1,0.1-0.2,0.1-0.2c0,0,0.1,0,0.1,0.1C1092.6,848.7,1092.6,848.8,1092.5,848.8z"
										/>
								</g>
							</g>
							<g>
								<path fill="#CFE4E5" d="M308.5,811.8c3.2,0.8,6,1.2,8.3,1.1c1,0,1.9-0.2,2.7-0.4c4.3,4.7,8.8,9.5,13.4,14.3
									c0.7,0.9,1.4,1.8,2.1,2.7l0.3-0.2c7.9,8.1,16.2,16.3,24.7,24.1c-2.1,0.2-5.4-0.2-10.3-1.6c-6.2-4.2-11-10.5-16.8-15.4
									c-8.5-7.6-18.4-16.3-30.3-16.8c-5.2-0.4-10.7,1.7-10.9,7.6c-0.4,6.9,4.8,13.1,10.1,17c8.2,6,18.9,8.9,28.9,10.4
									c6.8,1.1,13.8,1.3,20.7-0.1c3.2,0.8,6,1.2,8.3,1.1c0.8,0,1.6-0.1,2.3-0.3c12.4,11.3,25.3,22,38.2,30.9l4.2,0.3
									c-7.7-5.2-15.4-11-23.1-17.3c0.8-2.6,0.5-6.3-0.6-10.8c1.5-6.9,1.5-13.8,0.5-20.7c-1.4-10.1-4-20.7-9.9-29.1
									c-3.8-5.3-9.9-10.6-16.8-10.4c-6,0.2-8.1,5.6-7.8,10.8c0.3,11.9,8.9,21.9,16.3,30.6c4.9,5.8,11,10.7,15.2,17
									c1.5,5.5,1.7,8.9,1.3,11c-15.6-13-30.9-27.6-44.8-42.1c-0.4-0.6-0.9-1.2-1.3-1.8c0.7-2.6,0.4-6.3-0.6-10.6
									c1.5-6.9,1.5-13.8,0.5-20.7c-1.4-10.1-4-20.7-9.9-29.1c-3.8-5.3-9.9-10.6-16.8-10.4c-2.1,0.1-3.6,0.7-4.8,1.8
									c-1.4-4.2-2.7-8.5-3.9-12.8c2.5-1.2,4.9-4.3,7.3-8.4c5.8-4,10.5-9.1,14.5-14.8c5.9-8.3,11.3-17.9,12.7-28
									c0.8-6.5,0.1-14.5-5.2-19.1c-4.5-4-9.8-1.4-13.1,2.6c-7.9,8.9-8.5,22.1-9,33.5c-0.4,7.6,0.7,15.4-0.6,22.8
									c-3,5.7-5.4,8.3-7.2,9.4c-3.3-11.6-6.2-23.3-8.8-34.6c2-1.8,3.8-5.2,5.2-9.6c4.9-5.1,8.4-11.1,11.1-17.5
									c4-9.3,7.2-19.8,6.5-30c-0.5-6.5-3-14.2-9.1-17.5c-5.2-2.9-9.8,0.6-12.2,5.3c-5.9,10.4-3.7,23.4-1.8,34.6
									c1.2,7.5,3.9,14.9,4.3,22.4c-1.5,5.3-3,8.3-4.4,10c-2.2-10-4.2-19.8-5.9-29c-1.7-9.1-3.2-17.9-4.5-26.4
									c2.1-1.8,3.9-5.2,5.3-9.7c4.9-5.1,8.4-11.1,11.1-17.5c4-9.3,7.2-19.8,6.5-30c-0.5-6.5-3-14.2-9.1-17.5
									c-5.2-2.9-9.8,0.6-12.2,5.3c-5.9,10.4-3.7,23.4-1.8,34.6c1.2,7.5,3.9,14.9,4.3,22.4c-1.5,5.3-3,8.3-4.4,9.9
									c-4.1-26.6-6.6-49.1-7.9-62.1l0.5,0.6c2.1-1.7,3.9-5.2,5.4-9.8c4.9-5.1,8.4-11.1,11.1-17.5c4-9.3,7.2-19.8,6.5-30
									c-0.5-6.5-3-14.2-9.1-17.6c-5.2-2.9-9.8,0.6-12.2,5.3c-5.9,10.4-3.7,23.4-1.8,34.6c1.2,7.5,3.9,14.9,4.3,22.4
									c-1.6,5.7-3.2,8.7-4.7,10.3c-0.5-5.6-0.8-9.1-0.9-9.9l0.2,0c-0.2-2-0.6-3.9-1.1-5.8c1.3-6.9,1-13.8-0.1-20.6
									c-1.6-10-4.6-20.6-10.7-28.8c-4-5.2-10.2-10.3-17.1-9.9c-6,0.3-7.9,5.8-7.5,11c0.6,11.9,9.5,21.7,17.2,30.1
									c5,5.7,11.3,10.4,15.6,16.6c0.7,2.3,1.3,4.8,1.6,7.3l-0.2,0c0,0.3,1.5,20.2,5.4,49.2c-1.5-1.5-3.4-3.9-5.6-7.7
									c-1.5-7.4-0.6-15.2-1.2-22.7c-0.8-11.4-1.8-24.5-10-33.2c-3.4-3.9-8.8-6.3-13.1-2.2c-5.1,4.7-5.7,12.7-4.7,19.2
									c1.7,10.1,7.3,19.5,13.4,27.6c4.1,5.6,9,10.5,14.9,14.4c2.2,3.6,4.4,6.3,6.6,7.7c2.1,15.2,4.7,32.6,8.1,51
									c0.7,3.9,1.5,7.9,2.3,11.9c-2-0.8-4.8-2.7-8.7-6.9c-3.1-6.8-4.1-14.7-6.4-21.9c-3.4-10.9-7.4-23.4-17.4-30
									c-4.2-3-10-4.1-13.3,0.9c-3.9,5.8-2.6,13.7-0.1,19.8c4,9.4,11.6,17.3,19.4,23.8c5.3,4.5,11.2,8.2,17.8,10.5
									c3.3,3.3,6.4,5.6,9.1,6.2c4.4,21.8,10.2,45.7,17.5,68.4c-1.1,2-1.5,4.5-1.4,7c0.3,11.2,7.9,20.8,15,29.1
									c3.7,8.3,7.8,16.2,12.1,23.2c-5-5.4-9.8-10.7-14.3-15.7c-6.1-6.9-12-13.7-17.5-20.3c0.9-2.6,0.6-6.5-0.5-11.1
									c1.5-6.9,1.5-13.8,0.5-20.7c-1.4-10.1-4-20.7-9.9-29.1c-3.8-5.3-9.9-10.6-16.8-10.4c-6,0.2-8.1,5.6-7.8,10.8
									c0.3,11.9,8.9,21.9,16.3,30.6c4.9,5.8,11,10.7,15.2,17c1.4,5.3,1.7,8.6,1.4,10.8c-17.2-20.7-31-38.7-38.7-49.2l0.7,0.3
									c0.9-2.6,0.6-6.5-0.4-11.2c1.5-6.9,1.5-13.8,0.5-20.7c-1.4-10.1-4-20.7-9.9-29.1c-3.8-5.3-9.9-10.6-16.8-10.4
									c-6,0.2-8.1,5.6-7.8,10.8c0.3,11.9,8.9,21.9,16.3,30.6c4.9,5.8,11,10.7,15.2,17c1.5,5.7,1.7,9.1,1.3,11.2
									c-3.3-4.5-5.4-7.4-5.9-8.1l0.1-0.1c-1.2-1.6-2.5-3-3.9-4.4c-2.4-6.6-6.2-12.4-10.7-17.6c-6.6-7.8-14.5-15.3-24-19.2
									c-6.1-2.4-14-3.6-19.8,0.3c-4.9,3.3-3.8,9.1-0.7,13.3c6.7,9.9,19.3,13.7,30.2,17c7.2,2.3,15.1,3.1,21.9,6.2
									c1.8,1.6,3.6,3.4,5.1,5.4l-0.1,0.1c0.2,0.2,11.7,16.6,29.9,39.4c-2.1-0.5-4.9-1.6-8.8-3.8c-5.1-5.6-8.3-12.8-12.7-18.9
									c-6.6-9.3-14.2-20.1-25.6-23.4c-5-1.6-10.8-0.9-12.4,4.9c-2,6.7,1.7,13.9,5.9,18.9c6.6,7.8,16.3,13,25.7,16.8
									c6.4,2.7,13.1,4.4,20.2,4.7c3.7,1.9,7.1,3.1,9.7,3.2c9.6,12,20.8,25.5,33.2,39.5c2.6,3,5.3,6,8.1,9c-2.1,0.4-5.5,0.1-11-1.5
									c-6.2-4.2-11-10.5-16.8-15.4c-8.5-7.6-18.4-16.3-30.3-16.8c-5.2-0.4-10.7,1.7-10.9,7.6c-0.4,6.9,4.9,13.1,10.1,17
									c8.2,6,18.9,8.9,28.9,10.4C294.6,813.1,301.6,813.3,308.5,811.8z M318.5,798.3c4,4.2,8.4,8.2,11.6,13
									c1.2,4.6,1.6,7.7,1.5,9.8C326.8,814.3,322.5,806.6,318.5,798.3z"/>
								<path fill="#FFDCD8" d="M320.3,875.3c10.3-20.1,9.8-44.1,7.8-66.7c-3.5-38.8-12.1-80.2-40.9-106.4
									c-3.6-3.3-8.8-6.5-13.2-4.1c-1.4,0.8-2.4,2-3.4,3.3c-6.6,9.1-8.1,21.1-6.4,32.2c1.6,11.1,6.1,21.6,10.5,31.9
									c12.5,29.2,24.9,58.5,37.4,87.7c1.1,2.6,2.1,5.5,3.1,8.4c-13.2-29.3-30.5-56.7-51.2-81.3C244,756.2,218.7,734,187.8,729
									c-6.6-1.1-14.6-0.7-18.1,5.1c-3.7,6.2,0.7,14.1,5.3,19.6c14,17,31.4,30.9,48.6,44.7c25.5,20.4,50.2,40.2,75.3,60.3
									c-34.4-22.1-73.2-43.5-112.1-46.2c-5.2-0.4-11-0.1-14.5,3.7c-3.9,4.2-3,11.1,0.4,15.7c3.4,4.5,8.7,7.2,13.9,9.5
									c38.5,17.2,80.2,25.6,121.7,33.2L320.3,875.3z"/>
							</g>
						</g>
					</g>
				</g>
			</g>
		</g>
		<g>
			<g>
				<g>
					<path fill="#3A3E54" d="M945.4,260.3c0-12.1-9.8-21.9-21.9-21.9H496.7c-12.1,0-21.9,9.8-21.9,21.9v604.9
						c0,12.1,9.8,21.9,21.9,21.9h426.9c12.1,0,21.9-9.8,21.9-21.9V260.3z"/>
					<rect x="496.4" y="289.9" fill="#FFFFFF" width="427.1" height="546.9"/>
					<g>
						<g>
							<g>
								<rect x="494.3" y="295.2" fill="#F7CBC9" width="429.2" height="25.3"/>
								<g>
									<circle fill="#FFDCD8" cx="557.1" cy="307.3" r="6.4"/>
									<circle fill="#FFDCD8" cx="536.8" cy="307.3" r="6.4"/>
									<circle fill="#FFDCD8" cx="514.6" cy="307.3" r="6.4"/>
								</g>
								<path fill="#FFDCD8" d="M815.2,307.1c0-3-2.4-5.4-5.4-5.4H582.3c-3,0-5.4,2.4-5.4,5.4l0,0c0,3,2.4,5.4,5.4,5.4h227.5
									C812.8,312.5,815.2,310.1,815.2,307.1L815.2,307.1z"/>
							</g>
						</g>
					</g>
					<rect x="493.3" y="291.6" fill="none" stroke="#222244" stroke-width="5" stroke-miterlimit="10" width="429.5" height="549"/>
					<g>
						<circle fill="#161633" cx="709.9" cy="263.4" r="9.1"/>
						<path fill="#222244" d="M773.1,858.7c0-3-2.4-5.4-5.4-5.4H652.4c-3,0-5.4,2.4-5.4,5.4l0,0c0,3,2.4,5.4,5.4,5.4h115.4
							C770.8,864.1,773.1,861.7,773.1,858.7L773.1,858.7z"/>
					</g>
				</g>
				<g>
					<g>
						<ellipse fill="none" stroke="#B6C2C4" stroke-width="2" stroke-miterlimit="10" cx="669.4" cy="576" rx="18.6" ry="17"/>
						<path fill="none" stroke="#B6C2C4" stroke-width="2" stroke-miterlimit="10" d="M678.7,573.6h-6.3v-6.1c0-1.6-1.4-2.8-3.1-2.8
							c-1.7,0-3.1,1.3-3.1,2.8v6.1h-6c-1.7,0-3.1,1.8-3.1,3.3c0,1.6,1.4,3.3,3.1,3.3h6v4.1c0,1.6,1.4,2.8,3.1,2.8
							c1.7,0,3.1-1.3,3.1-2.8v-4.1h6.3c1.7,0,3.1-1.8,3.1-3.3C681.8,575.4,680.4,573.6,678.7,573.6z"/>
						<ellipse fill="none" stroke="#B6C2C4" stroke-width="2" stroke-miterlimit="10" cx="566.3" cy="576" rx="18.6" ry="17"/>
						<path fill="none" stroke="#B6C2C4" stroke-width="2" stroke-miterlimit="10" d="M578.1,576.8c0-1.7-1.6-3.2-3.5-3.2h-18.2
							c-1.9,0-3.5,1.4-3.5,3.2v0.4c0,1.7,1.6,3.2,3.5,3.2h18.2c1.9,0,3.5-1.4,3.5-3.2V576.8z"/>
					</g>
					<g>
						<path fill="#B6C2C4" d="M619.6,559.5h2v21.5h3.5v1.9h-3.5v9.6h-2v-9.6h-14.9L619.6,559.5z M619.6,563.5l-11.4,17.5h11.4V563.5
							z"/>
					</g>
					<g>
						<g>
							<g>
								<path fill="#D4DADC" d="M719.7,635.8c40.2,0,80.5,0,120.7,0c6.4,0,6.4-10,0-10c-40.2,0-80.5,0-120.7,0
									C713.2,625.8,713.2,635.8,719.7,635.8L719.7,635.8z"/>
							</g>
						</g>
						<g>
							<g>
								<path fill="#D4DADC" d="M540.9,635.8c46.8,0,93.6,0,140.4,0c6.4,0,6.4-10,0-10c-46.8,0-93.6,0-140.4,0
									C534.4,625.8,534.4,635.8,540.9,635.8L540.9,635.8z"/>
							</g>
						</g>
						<g>
							<g>
								<path fill="#D4DADC" d="M801.2,658.6c29.2,0,58.4,0,87.6,0c6.4,0,6.4-10,0-10c-29.2,0-58.4,0-87.6,0
									C794.8,648.6,794.8,658.6,801.2,658.6L801.2,658.6z"/>
							</g>
						</g>
						<g>
							<g>
								<path fill="#D4DADC" d="M629.7,658.6c44.1,0,88.3,0,132.4,0c6.4,0,6.4-10,0-10c-44.1,0-88.3,0-132.4,0
									C623.3,648.6,623.3,658.6,629.7,658.6L629.7,658.6z"/>
							</g>
						</g>
						<g>
							<g>
								<path fill="#D4DADC" d="M540.9,658.6c16.8,0,33.7,0,50.5,0c6.4,0,6.4-10,0-10c-16.8,0-33.7,0-50.5,0
									C534.4,648.6,534.4,658.6,540.9,658.6L540.9,658.6z"/>
							</g>
						</g>
						<g>
							<g>
								<path fill="#D4DADC" d="M716.6,681.5c57.4,0,114.8,0,172.2,0c6.4,0,6.4-10,0-10c-57.4,0-114.8,0-172.2,0
									C710.2,671.5,710.2,681.5,716.6,681.5L716.6,681.5z"/>
							</g>
						</g>
						<g>
							<g>
								<path fill="#D4DADC" d="M609.7,681.5c22.9,0,45.7,0,68.6,0c6.4,0,6.4-10,0-10c-22.9,0-45.7,0-68.6,0
									C603.2,671.5,603.2,681.5,609.7,681.5L609.7,681.5z"/>
							</g>
						</g>
						<g>
							<g>
								<path fill="#D4DADC" d="M826.7,704.3c20.7,0,41.4,0,62.1,0c6.4,0,6.4-10,0-10c-20.7,0-41.4,0-62.1,0
									C820.3,694.3,820.3,704.3,826.7,704.3L826.7,704.3z"/>
							</g>
						</g>
						<g>
							<g>
								<path fill="#D4DADC" d="M540.9,704.3c82.6,0,165.1,0,247.7,0c6.4,0,6.4-10,0-10c-82.6,0-165.1,0-247.7,0
									C534.4,694.3,534.4,704.3,540.9,704.3L540.9,704.3z"/>
							</g>
						</g>
					</g>
					<path fill="none" stroke="#D4DADC" stroke-width="2" stroke-miterlimit="10" d="M725.8,374.2c0-14.4-12.8-26.1-28.6-26.1H549.9
						c-15.8,0-28.6,11.7-28.6,26.1v134.4c0,14.4,12.8,26.1,28.6,26.1h147.3c15.8,0,28.6-11.7,28.6-26.1V374.2z"/>
					<path fill="none" stroke="#D4DADC" stroke-width="2" stroke-miterlimit="10" d="M893.2,370.1c0-9.9-8.8-18-19.7-18H772
						c-10.9,0-19.7,8.1-19.7,18v92.6c0,9.9,8.8,18,19.7,18h101.5c10.9,0,19.7-8.1,19.7-18V370.1z"/>
				</g>
				<g>
					<path fill="#E5E9EA" d="M653.7,512c-2.4-4.1-5.1-9.1-7.8-14.6c0-0.1-0.1-0.2-0.1-0.3v-6.9h-3.3c0-0.1,0-0.1-0.1-0.2
						c-3.5-7.7-6.9-15.9-8.3-24.2c2.3-1.3,2.6-3.8-0.7-3.8c-1.2-6.8-8.2-69.6-6.8-69.6h1.3c0.9-0.7,1.7-6.5,1.7-6.5
						c0-0.7-0.5-1.3-1.2-1.5c0.1-0.2,0.2-0.5,0.2-0.7v-1.1c0-0.9-0.8-1.6-1.8-1.6h-0.6c0.1-0.2,0.2-0.4,0.2-0.6
						c0-0.6-0.6-1.2-1.3-1.2h-0.5v-7.4c0-0.3-0.2-0.6-0.5-0.7v-8h-0.7v8c-0.3,0.1-0.5,0.4-0.5,0.7v7.4h-0.6c-0.7,0-1.3,0.5-1.3,1.2
						c0,0.2,0.1,0.4,0.2,0.6h-0.6c-1,0-1.8,0.7-1.8,1.6v1.1c0,0.3,0.1,0.5,0.2,0.7c-0.7,0.2-1.2,0.8-1.2,1.5c0,0,0.7,5.8,1.7,6.5
						c0,0,1.3,0,1.3,0c-0.2,23.1-2.6,46.9-6.8,69.6c-2.9,0.1-2.9,2.4-0.8,3.6c-0.2,8.1-4.8,17.2-8.1,24.5c0,0.1,0,0.1-0.1,0.2h-3.4
						v7.1c0,0,0,0.1,0,0.1c-3.1,6.3-6.3,12.1-8.9,16.5v9h9.9c0.3-10.7,9.6-19.3,21.1-19.3c0,0,0,0,0.1,0h0.1
						c11.5,0,20.9,8.6,21.2,19.3h8.7V512z M615.6,490.5c0,0,0-0.1,0.1-0.3c0.6-2.1,3.5-13.5,3.7-16.7h8.7c0,0,2.4,12.8,3.8,16.7
						c0,0.1,0.1,0.2,0.1,0.3H615.6z"/>
				</g>
				<g>
					<path fill="#E5E9EA" d="M800.1,434.9c0,0-1.3,3.7,0,4.8c0,0,0.7,1,4.4,0l7.3,11.9c0,0,2-0.7,2.6-2.8l-0.6-14.9l14.8-14.5
						l18.4,28.5c0,0,0.8,1.1,2.5-0.1c0,0,2-1.3,1-4l-8.3-38.2l13.7-13.7c0,0,5.4-7.1,2.3-10.7c0,0-4.8-2.9-11.9,3.8l-12.3,12
						l-39.8-8.1c0,0-3.3,0.1-2.9,3.3l29.1,18.8l-14.6,14.5l-15.1-0.2c0,0-2.4,1.1-2.3,2.5L800.1,434.9z"/>
				</g>
				<g>
					<path fill="#FFFFFF" d="M989.2,497.6c0-19.9-16.2-36.1-36.1-36.1H754.3c-19.9,0-36.1,16.2-36.1,36.1v0.2
						c0,19.9,16.2,36.1,36.1,36.1h198.9c19.9,0,36.1-16.2,36.1-36.1V497.6z"/>
					<g>
						<path fill="#F7CBC9" d="M953.1,535.9H754.3c-21,0-38.1-17.1-38.1-38.1v-0.2c0-21,17.1-38.1,38.1-38.1h198.9
							c21,0,38.1,17.1,38.1,38.1v0.2C991.2,518.9,974.1,535.9,953.1,535.9z M754.3,463.5c-18.8,0-34.1,15.3-34.1,34.1v0.2
							c0,18.8,15.3,34.1,34.1,34.1h198.9c18.8,0,34.1-15.3,34.1-34.1v-0.2c0-18.8-15.3-34.1-34.1-34.1H754.3z"/>
					</g>
					<path fill="#FFDCD8" d="M964.5,507.6l-9.5-9.5c2.8-4.4,2.3-10.3-1.6-14.2c-4.5-4.5-11.7-4.5-16.1,0c-4.5,4.5-4.5,11.7,0,16.1
						c3.8,3.8,9.6,4.3,14,1.7l9.6,9.6c1,1,2.7,1,3.7,0S965.5,508.6,964.5,507.6z M940.4,496.9c-2.7-2.7-2.7-7.2,0-9.9
						c2.7-2.7,7.2-2.7,9.9,0c2.7,2.7,2.7,7.2,0,9.9C947.6,499.7,943.1,499.7,940.4,496.9z"/>
					<g>
						<g>
							<path fill="#FFDCD8" d="M922.3,466.7c0,0,0.4,3.9,0.7,9.8c0.2,3,0.3,6.4,0.4,10.1c0,1.8,0.1,3.8,0.1,5.7c0,1.9,0,3.9,0,5.9
								c0,2,0,3.9,0,5.9c0,1.9-0.1,3.8-0.1,5.7c-0.1,3.7-0.2,7.1-0.4,10.1c-0.3,5.9-0.7,9.8-0.7,9.8s-0.4-3.9-0.7-9.8
								c-0.2-3-0.3-6.4-0.4-10.1c0-1.8-0.1-3.7-0.1-5.7c0-1.9,0-3.9,0-5.9c0-2,0-3.9,0-5.9c0-1.9,0.1-3.8,0.1-5.7
								c0.1-3.7,0.2-7.1,0.4-10.1C921.9,470.6,922.3,466.7,922.3,466.7z"/>
						</g>
					</g>
					<g>
						<path fill="#B6C2C4" d="M748.1,499.1c-1.1-0.6-1.8-1.1-2.2-1.5c-0.6-0.6-1-1.4-1-2.3c0-0.9,0.3-1.7,1-2.3c0.6-0.6,1.4-1,2.3-1
							c0.9,0,1.6,0.3,2.2,0.9c0.6,0.6,0.9,1.2,0.9,2v0.1l-1.1,0.4c-0.1-0.7-0.3-1.2-0.7-1.6c-0.3-0.3-0.8-0.5-1.4-0.5
							c-0.6,0-1,0.2-1.4,0.6c-0.4,0.4-0.6,0.9-0.6,1.4c0,0.6,0.2,1,0.6,1.4c0.2,0.2,0.7,0.6,1.5,1c1.2,0.6,2,1.2,2.5,1.7
							c0.8,0.8,1.2,1.7,1.2,2.8c0,1.1-0.4,2.1-1.2,2.9c-0.8,0.8-1.7,1.2-2.8,1.2s-2.1-0.4-2.8-1.2c-0.8-0.8-1.2-1.7-1.2-2.6l1.2-0.3
							c0,0.8,0.3,1.5,0.8,2c0.5,0.5,1.2,0.8,2,0.8s1.4-0.3,2-0.8c0.5-0.5,0.8-1.2,0.8-2c0-0.8-0.3-1.4-0.8-2
							C749.6,500.2,749,499.7,748.1,499.1z"/>
						<path fill="#B6C2C4" d="M759.5,503.6c1.2,1.1,2.6,1.6,4.2,1.6c1.7,0,3.2-0.6,4.4-1.8c0.2-0.2,0.3-0.3,0.4-0.5l1.3,0.5
							c-0.2,0.3-0.5,0.6-0.8,1c-1.5,1.5-3.3,2.2-5.4,2.2c-2.1,0-3.9-0.7-5.4-2.2c-1.5-1.5-2.2-3.3-2.2-5.4c0-2.1,0.7-3.9,2.2-5.4
							c1.5-1.5,3.3-2.2,5.4-2.2c1.8,0,3.4,0.5,4.7,1.6c0.2,0.2,0.4,0.4,0.7,0.6c0.1,0.1,0.2,0.2,0.2,0.2l-0.9,0.9L759.5,503.6z
							 M767.4,493.9c-1.1-0.8-2.3-1.2-3.8-1.2c-1.7,0-3.2,0.6-4.4,1.8c-1.2,1.2-1.8,2.7-1.8,4.4c0,1.4,0.4,2.7,1.2,3.8L767.4,493.9z
							"/>
						<path fill="#B6C2C4" d="M789.2,506.1H788v-2.8c-0.2,0.3-0.5,0.6-0.8,0.9c-1.5,1.5-3.3,2.2-5.4,2.2c-2.1,0-3.9-0.7-5.4-2.2
							c-1.5-1.5-2.2-3.3-2.2-5.4c0-2.1,0.7-3.9,2.2-5.4c1.5-1.5,3.3-2.2,5.4-2.2c2.1,0,3.9,0.7,5.4,2.2c0.3,0.3,0.6,0.6,0.8,0.9
							v-1.9h1.2V506.1z M788,500.2v-2.5c-0.2-1.2-0.8-2.3-1.7-3.2c-1.2-1.2-2.7-1.8-4.4-1.8c-1.7,0-3.2,0.6-4.4,1.8
							c-1.2,1.2-1.8,2.7-1.8,4.4s0.6,3.2,1.8,4.4c1.2,1.2,2.7,1.8,4.4,1.8c1.7,0,3.2-0.6,4.4-1.8C787.2,502.4,787.7,501.4,788,500.2
							z"/>
						<path fill="#B6C2C4" d="M794.8,492.6h1.2v2.5c0.3-0.4,0.6-0.7,0.9-1.1c1.1-1.1,2.2-1.7,3.4-1.7v1.4c-0.8,0-1.6,0.5-2.4,1.3
							c-1.2,1.2-1.8,2.6-1.8,4.2v7h-1.2V492.6z"/>
						<path fill="#B6C2C4" d="M816,502.9l1.3,0.5c-0.2,0.3-0.5,0.6-0.8,1c-1.5,1.5-3.3,2.2-5.4,2.2c-2.1,0-3.9-0.7-5.4-2.2
							c-1.5-1.5-2.2-3.3-2.2-5.4c0-2.1,0.7-3.9,2.2-5.4c1.5-1.5,3.3-2.2,5.4-2.2c2.1,0,3.9,0.7,5.4,2.2c0.3,0.3,0.6,0.6,0.8,0.9
							L816,495c-0.1-0.2-0.3-0.3-0.4-0.5c-1.2-1.2-2.7-1.8-4.4-1.8c-1.7,0-3.2,0.6-4.4,1.8c-1.2,1.2-1.8,2.7-1.8,4.4
							c0,1.7,0.6,3.2,1.8,4.4c1.2,1.2,2.7,1.8,4.4,1.8c1.7,0,3.2-0.6,4.4-1.8C815.8,503.2,815.9,503,816,502.9z"/>
						<path fill="#B6C2C4" d="M822.1,484h1.2v9.3c1-1,2.3-1.5,3.8-1.5c1.6,0,2.9,0.5,3.9,1.5c1,1,1.5,2.3,1.5,3.8v9.1h-1.2v-9
							c0-1.2-0.4-2.1-1.3-3c-0.8-0.8-1.8-1.2-3-1.2c-1.1,0-2.1,0.4-3,1.2c-0.4,0.4-0.6,0.8-0.8,1.1v10.8h-1.2V484z"/>
					</g>
				</g>
			</g>
		</g>
		<g>
			<g>
				<g>
					<g>
						<path fill="#FEB238" d="M355,356.8c0,0-27.7-4.8-28-14c-0.7-24.5,32.4-79.8,32.4-79.8l33.3,16.2L355,356.8z"/>
						<path fill="#4D5068" d="M410,252.9c0,0,14.7-8.4,9.5-17c-5.2-8.6,3-16.6-14.1-18.1c-17.1-1.4-18.7,1.8-28.8,2.8
							c-10.1,1-26.8,1.7-34.5,16.3c-7.7,14.5,3.4,52.9,3.4,52.9L410,252.9z"/>
						<path fill="#FEB238" d="M408.8,237.6c2.4,4.7,4.4,9.7,5.7,14.8c2.2,8.6-3.6,14.8-2.6,22.7c0.5,4.5,4.3,8.6,3.9,13.3
							c-0.6,5.5-7.2,3-7.8,4.4c0,0-8.1,20.4-8.1,20.4c-1.9,4.7-7.4,6.8-12,4.6c0,0-20.5-9.6-20.6-9.7c-12.6-5.9-7.4-21-8.8-31.7
							c-1.3-9.3-12.3-16.9,0-23.4c1.6-0.8,8.6-1.1,9.5-0.2c1.8,1.7,3.3,10,4,14.1c0.1,0.5,0.8,0.5,0.9,0
							C375,258.7,384.3,230.5,408.8,237.6z"/>
						<path fill="#E89721" d="M375.5,311.5c0,0-18.9-8.7-22.1-20.1c0,0,13,26.5,21.2,25.1L375.5,311.5z"/>
						<path fill="#4D5068" d="M408.2,296.5c0,0-1.3,17.8-5.4,20.7c-6,4.3-7.5,7.2-13.9,4.6c-6.3-2.6-33.5-11.4-30-27.2
							c0.5-2.3,0.1-5.5,1.1-7.6c1.1-2.2,2.8-2.1,3.7-3.6c1.9-3,2.3-6.8,2.9-10.3c0.6-3.7,0.6-21.4,4.6-22.9
							c3.4-1.3,5.7,3.4,3.5,11.8c-2.2,8.4-4.4,21.3,2.7,23.7C384.6,288.1,403.3,284.9,408.2,296.5z"/>
						<path fill="#4D5068" d="M414.2,250c0,0-23.5,12.2-34.8,6.1c-11.3-6.1-5.5-18.8-5.5-18.8S422.6,221.4,414.2,250z"/>
					</g>
					<g>
						
							<rect x="356.2" y="841.6" transform="matrix(0.9999 1.419216e-02 -1.419216e-02 0.9999 12.3578 -5.1761)" fill="#FEB238" width="29.4" height="53.1"/>
						<g>
							
								<rect x="314.9" y="832.8" transform="matrix(0.9901 0.1407 -0.1407 0.9901 124.1836 -37.8295)" fill="#FEB238" width="29.4" height="53.1"/>
							<path fill="#2D3244" d="M422.3,519.1c-6.8,48.2-14.7,96.3-20.5,144.6c-5.3,44.2-20.6,85.6-33.5,127.9
								c-1.5,4.9-21.5,73.9-23.3,73.7l-34.5-4.9c12.7-68.4,28.1-135.9,29.1-205.8c0.3-17.5,3.1-35.2,1.4-52.8
								c-1.7-17.1-11.9-29.9-15-46.3c-2.5-13.3,0-24.5,3.6-37.2L422.3,519.1z"/>
							<path fill="#B0D3D5" d="M306.9,885.7l3.1-21.9l32.5,4.6l7.3-9l39.9,21.5c3.8,2.3,5.8,7,5.1,11.9l-0.6,4L306.9,885.7z"/>
						</g>
						<path fill="#3A3E54" d="M419.7,518.9c-0.7,48.6-2.4,97.4-2,146c0.4,44.5-9.6,87.5-17.1,131.1c-0.9,5-12,76-13.8,76l-34.8-0.5
							c4-69.5,10.6-138.4,2.8-207.8c-2-17.4-1.3-35.3-5.2-52.5c-3.8-16.8-15.6-28.2-20.7-44c-4.2-12.9-3.1-24.3-1.1-37.3
							L419.7,518.9z"/>
						<path fill="#F2A536" d="M459.9,431l0.3-1.4c0,0,9.3-4.4,9.3-4.5c0.9-0.4-13.3-16.6-19-16c-5.6,0.5-12.3,7-17,10h-13.2
							l-11.2,5.2v17.2h23.4c0,0,13.4,7.4,18.3,6.8c2-0.2,6.6-4.4,6.6-4.4l4,0.7c2,0.4,4.1-0.6,5.2-2.4l1.6-2.6l4.2-0.1
							c1.7,0,3.2-1.3,3.5-3l0.5-3c0,0,3.5-1.1,4.2-2c0.8-1.2,0.6-5.7,0.6-5.7l-6.5,2.8l-25.3,14l-5.1-2.8L459.9,431z"/>
						<polygon fill="#FEB238" points="423.7,433.1 427,419 420.3,419 409.1,424.2 409.1,441.4 424.4,441.4 						"/>
						<path fill="#FFDCD8" d="M321.7,327.3c-5.9-1.6-12.1,14.9-12.9,18.6c-2.7,11.9,1.5,23.7,2.1,35.6c1.1,18.8,3.1,37.4,4.3,56.2
							c2.4,37,6,73.9,8.9,110.8c0.6,8.1,58.6-9.1,97.3-13.6c2.8-0.9-0.5-42.6-0.6-46.3c-1-47.9-0.7-99.4-35.5-136.8
							c-2.3-2.5-22.1-20.9-19.6-24.4c-4.4,6.1-12.2,8.8-19.4,6.8C346.4,334.1,322,327.4,321.7,327.3z"/>
						<path fill="#3A3E54" d="M504.5,413.8l-56.8,30c-1.3,0.7-3,0.2-3.7-1.1l-0.6-1.2c-0.7-1.3-0.2-3,1.1-3.7l56.8-30
							c1.3-0.7,3-0.2,3.7,1.1l0.6,1.2C506.4,411.4,505.8,413.1,504.5,413.8z"/>
						<path fill="#B0D3D5" d="M351.6,897.1l0.3-22.1l32.8,0.5l6.1-9.9l42.3,16.3c4,1.8,6.7,6.2,6.6,11.2l-0.1,4H351.6z"/>
					</g>
				</g>
				<path fill="#F7CBC9" d="M365.9,327.3c0,0-22-5.3-30.3-19.8c0,0-15.2,16.7-16.7,20.5c-1.5,3.8,50.9,27.4,50.9,27.4L365.9,327.3z"
					/>
				<polygon fill="#F7CBC9" points="365.9,327.3 382.7,346.3 366,334.9 				"/>
				<path fill="#FEB238" d="M366,406c-3.4,1.6,14.5,25.3,18.7,26.8c8.8,3.1,22.9,1.6,32.3,2.1c18.2,1.1,36.4,2.5,54.6,3.7l2.4-5.1
					c2-4.2,6.1-6.9,10.8-7.2c5.7-0.3,11.7-4.2,17.6-2.3c5.5,1.8,9.4,5.3,4,9.6c4.5,7-2.8,10.6-3,17.6c0,0,0,0.1,0,0.1
					c-0.3,2.4-1.7,4.5-3.8,5.6c-12.6,7-23.6,2.7-36.7,3.5c-11.2,0.6-22.6,3.2-33.7,4.8c-14.4,2.1-28.6,4.5-43,6.4
					c-17,2.2-21.1-6.3-29.6-19.6c-1.6-2.5-19.5-32.5-21.7-31.5C334.8,420.6,366,406,366,406z"/>
				<path fill="#F7CBC9" d="M333.7,424l37-16.6l-18-52.3c-5.4-12.5-19.9-18.2-32.3-12.9h0c-12.5,5.4-18.2,19.9-12.9,32.3L333.7,424z
					"/>
			</g>
			<g>
				<g>
					<path fill="#7CB6B9" d="M958.5,335l-45.7-80.3c0,0,1.2-13.7,1.2-14.5c1.5-18.1-30.1-9.5-40-5.6c2,1.3,9.2,4.7,10,7.1
						c0,0,7.3,17.8,7.3,17.8s7.9,10,7.9,10c9.3,25.7,10.8,64.2,30.8,84.2c6.1,6.1,73.1,28.3,73,28.7c0,0,8.7-33.7,8.7-33.7
						L958.5,335z"/>
					<path fill="#F7CBC9" d="M1021.9,338.6l-31.5,3l-10.5,37.5c0,0,28.5,16.5,33,18S1050.4,346.1,1021.9,338.6z"/>
				</g>
				<g>
					<g>
						<path fill="#FFBF61" d="M1089.8,225.8c0,0,37.6-9,30.3,30.1c-7.3,39.1-48.6,104-53.7,105.2c-5.1,1.2-5.1,1.2-5.1,1.2
							S1071.6,244.4,1089.8,225.8z"/>
						
							<rect x="996.7" y="841" transform="matrix(-0.9999 1.422539e-02 -1.422539e-02 -0.9999 2035.083 1720.6708)" fill="#7CB6B9" width="29.4" height="53.1"/>
						<g>
							
								<rect x="1054" y="832.3" transform="matrix(-0.9901 0.1407 -0.1407 -0.9901 2247.4971 1558.7981)" fill="#7CB6B9" width="29.4" height="53.1"/>
							<path fill="#2D3244" d="M976,518.6c6.8,48.2,14.7,96.3,20.5,144.6c5.3,44.2,20.6,85.6,33.5,127.9
								c1.5,4.9,21.5,73.9,23.3,73.7l34.5-4.9c-12.7-68.4-28.1-135.9-29.1-205.8c-0.3-17.6-3.1-35.2-1.4-52.8
								c1.7-17.1,11.9-29.9,15-46.3c2.5-13.3,0-24.5-3.6-37.2L976,518.6z"/>
							<path fill="#FFDCD8" d="M1091.4,885.1l-3.1-21.9l-32.5,4.6l-7.3-9l-39.9,21.5c-3.8,2.3-5.8,7-5.1,11.9l0.6,4L1091.4,885.1z"
								/>
						</g>
						<path fill="#FEB238" d="M1070.8,201.3c17.4,6.1,27.9,24,23.8,42.1c-3.2,13.9-12.5,32.3-34.2,55.4c0,0-36.8-33.9-36.8-34
							c-2.7-2.5-3.9-13-5-16.6c-2.5-8.3-7.8-16.3-9-25c-2-14.7,19.3-23.8,30.9-25.7C1050.6,195.8,1061.3,197.9,1070.8,201.3z"/>
						<path fill="#7CB6B9" d="M1033.1,342.8c0,0,27.1,2.1,29.5-6.5c6.4-22.7-11.5-82.4-11.5-82.4l-35,7.3L1033.1,342.8z"/>
						<path fill="#3A3E54" d="M979.4,525.9l-42.6,193.4l61.3,144.2c0,0,29.7-2.3,29.8-2.3c22.6-1.8-25.6-128.4-33.5-138.7
							c-3.9-5.1,26.5-65,29.4-72.3c7.1-17.6,14.2-35.2,21.3-52.8l10.6-8.5c8.9-7.2,14.1-18,14.1-29.4v-43.8L979.4,525.9z"/>
						<path fill="#7CB6B9" d="M1010.9,218.5c-3.4,3.8-6.4,8.1-8.8,12.5c-4.1,7.6-0.2,14.7-2.9,21.9c-1.6,4.1-6.1,7-6.8,11.6
							c-0.8,5.3,6.1,4.5,6.2,6c0,0,2.8,21,2.8,21c0.6,4.9,5.3,8.1,10.1,7.1l21.5-4.2c10-2.2,16.6-11.7,15.3-21.9l-0.8-5.7
							c0,0,2.1,3.2,6.7-7.7c1.9-4.3,3.2-10.7,0-14.2c-1.2-1.3-7.8-3-8.8-2.5c-2.1,1.2-5.5,8.6-7.1,12.2c-0.2,0.4-0.8,0.3-0.8-0.2
							C1037.5,246.2,1035.5,217.7,1010.9,218.5z"/>
						<path fill="#FFDCD8" d="M1076.6,326.8c5.9-1.6,12.1,14.9,12.9,18.6c2.7,11.9-1.5,23.7-2.1,35.6c-1.1,18.8-3.1,37.4-4.3,56.2
							c-2.4,37-6,73.9-8.9,110.8c-0.6,8.1-58.6-9.1-97.3-13.6c-2.8-0.9,0.5-42.6,0.6-46.3c1-47.9,0.7-99.4,35.5-136.8
							c2.3-2.5,22.1-20.9,19.6-24.4c4.4,6.1,12.2,8.8,19.4,6.8C1051.9,333.6,1076.3,326.8,1076.6,326.8z"/>
						<path fill="#FFDCD8" d="M1030.7,896.5l-0.3-22.1l-32.8,0.5l-6.1-9.9l-42.3,16.3c-4,1.8-6.7,6.2-6.6,11.2l0.1,4H1030.7z"/>
						<path fill="#7CB6B9" d="M1037.4,386.1l-23.1,45.8l-32.1-36c-2.2,1.1-5.1,0.8-6.9-1.7c-0.2-0.2-0.3-0.5-0.5-0.7
							c-0.1-0.1-0.1-0.1-0.3-0.3c-0.3-0.2-0.6-0.5-0.9-0.7c-0.2-0.1-0.9-0.6-1-0.6c-0.4-0.2-0.7-0.4-1.1-0.6c-2-1.2-4-2.5-5.2-4.6
							c-0.5-1-0.8-2-0.9-3.1H952l4.7,21.2c11.5,18.3,22.3,37.1,34.5,54.9c17.5,25.4,32,25.1,48.2-1.8c11.7-19.5,19.6-40.2,29.6-60.5
							C1068.9,397.4,1037.4,386.1,1037.4,386.1z"/>
						<path fill="#FFBF61" d="M1016.1,209.8c-1.2-0.4-2.4-0.6-3.6-0.5c-6.9,0.7-10.7,9.7-6.1,15.1c6.3,7.4,7.1,18,12,26.2
							c6.7,11.4,18.6,12.8,30.5,15.6c18.9,4.5,34.2-0.8,43.5-19.1c-20-4.8-43.2-9.1-59.6-22C1028.2,221.5,1022.5,212.1,1016.1,209.8
							z"/>
						<path fill="#67A3A1" d="M1024.6,295.5c0,0,19.7-3.7,25.4-13.6c0,0-18.4,21.7-25.7,18.5L1024.6,295.5z"/>
					</g>
					<path fill="#F7CBC9" d="M1032.4,326.8c0,0,22-5.3,30.3-19.8c0,0,15.2,16.7,16.7,20.5c1.5,3.8-50.9,27.4-50.9,27.4L1032.4,326.8
						z"/>
					<polygon fill="#F7CBC9" points="1032.4,326.8 1015.6,345.7 1032.3,334.3 					"/>
					<path fill="#F7CBC9" d="M1064,423.5l-36.8-17.2l18.8-52c5.6-12.4,20.1-17.9,32.5-12.4h0c12.4,5.6,17.9,20.1,12.4,32.5
						L1064,423.5z"/>
				</g>
				<path fill="#7CB6B9" d="M986.2,414.4c-0.7-3,0.5-5.5,2.4-7.1c-16-18.1-29.2-84.9-30.7-84.5c-5.9,1.6-8.8,6.7-7.2,12.2l4.7,15.7
					l-2.9,3.8c-2.4,3.1-3,7-1.8,11l2.4,7.8l-0.4,22.9c-0.1,6.2,3.3,12.5,9.1,17.2l12.5,10c0,0,6.7-3.3,13.2-6.5
					C986.9,416.3,986.5,415.5,986.2,414.4z"/>
			</g>
		</g>
		<g>
			<g>
				<g>
					<g>
						<path fill="#518E8B" d="M555.5,696.3c4.6-13.9,17.7-23.9,33.1-24c15.3-0.2,28.4,10.2,33,24h16.1
							c-5.2-22.5-25.1-39.3-49.1-39.6c-24-0.3-43.9,17.3-49.1,39.6H555.5z"/>
					</g>
				</g>
				<g>
					<path fill-rule="evenodd" clip-rule="evenodd" fill="#67A3A1" d="M695.6,691.7c0-1.4,0.1-2.9,0.3-4.3H450.6
						c-7.3,0-13.1,5.9-13.1,13.1v189.3c0,7.3,5.9,13.1,13.1,13.1h273.3c7.3,0,13.1-5.9,13.1-13.1V727.2c-1.8,0.3-3.6,0.4-5.5,0.4
						C711.7,727.6,695.6,711.5,695.6,691.7z"/>
				</g>
				<g>
					<path fill="#A1C9C9" d="M723.8,687.1h-28c-0.2,1.4-0.3,2.8-0.3,4.3c0,19.9,16.1,36,36,36c1.9,0,3.7-0.1,5.5-0.4v-26.7
						C737,693,731.1,687.1,723.8,687.1z"/>
				</g>
				<g>
					<path fill="#A1C9C9" d="M449.8,687.1h28c0.2,1.4,0.3,2.8,0.3,4.3c0,19.9-16.1,36-36,36c-1.9,0-3.7-0.1-5.5-0.4v-26.7
						C436.7,693,442.6,687.1,449.8,687.1z"/>
				</g>
				<g>
					<path fill="#A1C9C9" d="M449.8,903h28c0.2-1.4,0.3-2.8,0.3-4.3c0-19.9-16.1-36-36-36c-1.9,0-3.7,0.1-5.5,0.4v26.7
						C436.7,897.1,442.6,903,449.8,903z"/>
				</g>
				<g>
					<path fill="#A1C9C9" d="M723.8,903h-28c-0.2-1.4-0.3-2.8-0.3-4.3c0-19.9,16.1-36,36-36c1.9,0,3.7,0.1,5.5,0.4v26.7
						C737,897.1,731.1,903,723.8,903z"/>
				</g>
				<g>
					<g>
						<g>
							<path fill="#518E8B" d="M536.7,694c0-3.6-2.9-6.6-6.6-6.6h-19.4c-3.6,0-6.6,2.9-6.6,6.6v50.1c0,3.6,2.9,6.6,6.6,6.6h19.4
								c3.6,0,6.6-2.9,6.6-6.6V694z"/>
						</g>
						<g>
							<path fill="#7CB6B9" d="M528.1,692.2c0-3-1.4-5.4-3-5.4h-9c-1.7,0-3,2.4-3,5.4v41.5c0,3,1.4,5.4,3,5.4h9c1.7,0,3-2.4,3-5.4
								V692.2z"/>
						</g>
					</g>
					<g>
						<g>
							<path fill="#518E8B" d="M670.2,694c0-3.6-2.9-6.6-6.6-6.6h-19.4c-3.6,0-6.6,2.9-6.6,6.6v50.1c0,3.6,2.9,6.6,6.6,6.6h19.4
								c3.6,0,6.6-2.9,6.6-6.6V694z"/>
						</g>
						<g>
							<path fill="#7CB6B9" d="M661.7,692.2c0-3-1.4-5.4-3-5.4h-9c-1.7,0-3,2.4-3,5.4v41.5c0,3,1.4,5.4,3,5.4h9c1.7,0,3-2.4,3-5.4
								V692.2z"/>
						</g>
					</g>
				</g>
				<g>
					<g>
						<path fill-rule="evenodd" clip-rule="evenodd" fill="#FFDCD8" d="M518.4,805.3c0-2.6,3.7-5.7,3.1-8.1c-0.6-2.6-5.2-3.7-6.3-6
							c-1.1-2.3,0.8-6.7-0.8-8.7c-1.6-2-6.3-1.1-8.3-2.7c-2-1.6-2.1-6.4-4.4-7.5c-2.3-1.1-6.1,1.8-8.6,1.2c-2.5-0.6-4.6-4.8-7.3-4.8
							s-4.8,4.2-7.3,4.8c-2.6,0.6-6.3-2.3-8.6-1.2c-2.3,1.1-2.4,5.9-4.4,7.5c-2,1.6-6.7,0.6-8.3,2.7c-1.6,2,0.4,6.3-0.8,8.7
							c-1.1,2.3-5.7,3.4-6.3,6c-0.6,2.5,3.1,5.5,3.1,8.1s-3.7,5.7-3.1,8.1c0.6,2.6,5.2,3.7,6.3,6c1.1,2.3-0.8,6.7,0.8,8.7
							c1.6,2,6.3,1.1,8.3,2.7c2,1.6,2.1,6.4,4.4,7.5c2.3,1.1,6.1-1.8,8.6-1.2c2.5,0.6,4.6,4.8,7.3,4.8s4.8-4.2,7.3-4.8
							c2.6-0.6,6.3,2.3,8.6,1.2c2.3-1.1,2.4-5.9,4.4-7.5c2-1.6,6.7-0.6,8.3-2.7c1.6-2-0.4-6.3,0.8-8.7c1.1-2.3,5.7-3.4,6.3-6
							C522.1,811,518.4,808,518.4,805.3z"/>
					</g>
					<g>
						<circle fill-rule="evenodd" clip-rule="evenodd" fill="#F7CBC9" cx="485.8" cy="805.3" r="29.4"/>
					</g>
					<g>
						<path fill="#FFFFFF" d="M474.8,814c0,0-0.6,1.7,0,2.2c0,0,0.3,0.5,2.1,0l3.4,5.5c0,0,0.9-0.3,1.2-1.3l-0.3-6.9l6.9-6.7
							l8.5,13.3c0,0,0.4,0.5,1.1,0c0,0,1-0.6,0.5-1.8l-3.9-17.8l6.4-6.4c0,0,2.5-3.3,1-5c0,0-2.2-1.3-5.5,1.8l-5.7,5.6l-18.6-3.8
							c0,0-1.5,0.1-1.3,1.5l13.5,8.7l-6.8,6.7l-7.1-0.1c0,0-1.1,0.5-1,1.2L474.8,814z"/>
					</g>
				</g>
				<g>
					<g>
						<path fill="#518E8B" d="M637.5,816.4c-0.7-2.3-3.2-3.6-5.5-2.9l-115.4,35.8c-2.3,0.7-3.6,3.2-2.9,5.5l9.2,29.7
							c0.7,2.3,3.2,3.6,5.5,2.9l115.4-35.8c2.3-0.7,3.6-3.2,2.9-5.5L637.5,816.4z"/>
					</g>
					<g>
						<path fill="#FFFFFF" d="M539,870.8c0.2,0.6,0.3,1.1,0.4,1.6c0.1,0.5,0.1,0.8,0,1.1c0,0.3-0.2,0.6-0.3,0.7
							c-0.2,0.2-0.3,0.3-0.6,0.4c-0.2,0.1-0.4,0.1-0.6,0c-0.2-0.1-0.5-0.1-0.7-0.2c-0.2-0.1-0.4-0.2-0.6-0.4
							c-0.2-0.1-0.3-0.3-0.3-0.4c0-0.1,0-0.1,0-0.2c0,0,0,0,0.1-0.1c0,0,0.1,0,0.2,0c0.1,0,0.1,0,0.2,0c0.2-0.1,0.4-0.3,0.4-0.6
							c0-0.3-0.1-0.9-0.3-1.6L532,856c-0.8,0.3-1.6,0.7-2.3,1.2s-1.3,1-1.8,1.7c-0.5,0.6-0.7,1.4-0.9,2.2s0,1.8,0.3,2.8
							c0.1,0.5,0.3,0.9,0.5,1.2s0.4,0.7,0.7,0.9c0.2,0.3,0.5,0.5,0.8,0.6c0.3,0.2,0.5,0.3,0.7,0.4c0.1-0.1,0.2-0.1,0.3,0
							c0.1,0.1,0.2,0.2,0.2,0.3c0.1,0.2,0.1,0.4,0.1,0.6c0,0.2-0.1,0.4-0.1,0.6c-0.1,0.2-0.2,0.4-0.3,0.5c-0.1,0.2-0.3,0.3-0.4,0.3
							c-0.1,0-0.1,0-0.2,0c-0.1,0-0.2,0-0.2-0.1c-0.2-0.1-0.5-0.2-0.9-0.5c-0.4-0.2-0.8-0.6-1.2-1c-0.4-0.4-0.8-0.9-1.2-1.5
							c-0.4-0.6-0.7-1.2-0.9-1.9c-0.4-1.3-0.5-2.6-0.3-3.7c0.2-1.2,0.6-2.2,1.3-3.2c0.7-1,1.5-1.8,2.6-2.5c1.1-0.7,2.3-1.3,3.8-1.7
							c0.3-0.1,0.7-0.2,1.2-0.4s0.9-0.3,1.4-0.4c0.5-0.1,0.9-0.3,1.3-0.4c0.4-0.1,0.6-0.2,0.8-0.2c0.1,0,0.2-0.1,0.3-0.1
							c0.1,0,0.1-0.1,0.2-0.1c0,0,0.1-0.1,0.1-0.1c0,0,0,0,0.1-0.1c0,0,0.1,0,0.2,0c0.1,0,0.1,0.1,0.2,0.2c0.1,0.1,0.1,0.2,0.2,0.3
							s0.1,0.2,0.1,0.3c0,0.2,0.1,0.3,0.1,0.5c0,0.2,0,0.4-0.1,0.5c0,0.2-0.1,0.3-0.2,0.4c-0.1,0.1-0.2,0.2-0.4,0.3
							c-0.1,0-0.3,0.1-0.5,0.2c-0.3,0.1-0.6,0.2-0.9,0.3s-0.7,0.2-1.1,0.3c-0.4,0.1-0.7,0.2-1,0.3L539,870.8z"/>
						<path fill="#FFFFFF" d="M549,870.3c-0.3,0.1-0.7,0.2-1,0.2c-0.4,0-0.7-0.1-1.1-0.2c-0.3-0.2-0.7-0.4-1-0.7
							c-0.3-0.3-0.5-0.8-0.7-1.4c-0.3-0.9-0.4-1.9-0.5-2.9c-0.1-1.1-0.1-2.2,0-3.6l-2.1,0.6l-0.3,0.1c0.1,0.3,0.2,0.6,0.3,1
							c0.1,0.4,0.2,0.9,0.3,1.3c0.1,0.5,0.2,1,0.2,1.5c0.1,0.5,0.1,1,0.1,1.4c0,0.3-0.1,0.5-0.3,0.6c-0.2,0.1-0.4,0.1-0.6,0.1
							c-0.2-0.1-0.4-0.2-0.6-0.3c-0.2-0.2-0.3-0.4-0.3-0.6c0-0.3-0.1-0.7-0.1-1.1c-0.1-0.4-0.2-0.8-0.3-1.3
							c-0.1-0.5-0.2-0.9-0.3-1.3c-0.1-0.4-0.2-0.8-0.3-1.2c-0.4-0.1-0.8-0.2-1.1-0.5c-0.3-0.2-0.5-0.5-0.7-0.9
							c-0.1-0.2-0.1-0.4,0-0.5c0-0.2,0.1-0.3,0.2-0.5s0.2-0.3,0.4-0.4c0.2-0.1,0.3-0.2,0.5-0.2c0.2,0,0.3-0.1,0.5-0.1
							c0.2,0,0.4,0,0.6,0.1c0.2,0.1,0.4,0.2,0.6,0.3c0.2,0.1,0.4,0.3,0.5,0.6c0.2,0,0.4-0.1,0.6-0.1c0.2,0,0.3-0.1,0.4-0.1
							c0.1,0,0.2,0,0.3-0.1c0.1,0,0.1,0,0.2-0.1l1.4-0.4c0.1,0,0.2,0,0.4,0c0.2,0,0.4,0.1,0.6,0.2c0.2,0.1,0.4,0.2,0.5,0.4
							c0.2,0.1,0.2,0.3,0.3,0.5c0,0.1,0,0.2,0,0.4c0,0.2,0,0.5,0,0.8c0,0.3,0,0.7,0,1.2s0.1,0.9,0.1,1.4c0,0.5,0.1,1,0.2,1.5
							c0.1,0.5,0.2,1,0.3,1.4c0.1,0.2,0.1,0.4,0.2,0.5c0.1,0.2,0.2,0.3,0.3,0.4c0.1,0.1,0.3,0.2,0.4,0.2c0.2,0,0.3,0,0.5,0
							c0.3-0.1,0.5-0.3,0.7-0.5c0.2-0.3,0.3-0.6,0.3-0.9c0.1-0.3,0.1-0.7,0.1-1.1c0-0.4,0-0.7-0.1-1c0-0.3,0-0.5,0.1-0.7
							c0.1-0.2,0.2-0.3,0.3-0.3c0.1,0,0.2,0,0.4,0c0.1,0,0.3,0.1,0.4,0.2c0.1,0.1,0.2,0.2,0.3,0.3s0.2,0.2,0.2,0.4c0,0,0,0.1,0,0.1
							c0,0,0,0.1,0,0.1c0,0.5,0,1,0,1.6c0,0.6-0.2,1.1-0.3,1.6c-0.2,0.5-0.4,1-0.8,1.4C550,869.8,549.6,870.1,549,870.3z"/>
						<path fill="#FFFFFF" d="M558.6,865.3c0.3-0.1,0.5-0.3,0.6-0.5c0.1-0.3,0.2-0.6,0.3-0.9s0.1-0.7,0.1-1.1c0-0.4,0-0.7-0.1-1
							c0-0.3,0-0.5,0.1-0.7c0.1-0.2,0.2-0.3,0.3-0.3c0.1,0,0.2,0,0.4,0c0.1,0,0.3,0.1,0.4,0.2c0.1,0.1,0.2,0.2,0.3,0.3
							c0.1,0.1,0.2,0.2,0.2,0.4c0,0,0,0,0,0.1c0,0,0,0.1,0,0.1c0,0.5,0,1,0,1.6c0,0.6-0.2,1.1-0.3,1.6c-0.2,0.5-0.4,1-0.8,1.4
							c-0.4,0.4-0.8,0.7-1.4,0.9c-0.5,0.1-0.9,0.2-1.4,0.1c-0.4-0.1-0.8-0.3-1.1-0.6c-0.2,0.4-0.4,0.8-0.7,1.1
							c-0.3,0.3-0.7,0.6-1.3,0.7c-0.5,0.2-1,0.2-1.5,0.1c-0.5-0.1-0.9-0.3-1.3-0.6c-0.4-0.3-0.7-0.7-1-1.1c-0.3-0.5-0.5-1-0.7-1.6
							c-0.4-1.1-0.5-2.2-0.4-3.2c0.1-1,0.3-1.9,0.7-2.8c0.4-0.8,0.9-1.5,1.6-2.1c0.7-0.6,1.4-1,2.3-1.3c0.4-0.1,0.7-0.1,1,0
							c0.3,0.1,0.5,0.4,0.6,0.7c0.1,0.2,0.1,0.4,0.1,0.5c0,0.1-0.1,0.2-0.2,0.2c-0.1,0-0.3,0.1-0.4,0.1c-0.1,0-0.3,0.1-0.4,0.1
							c-0.5,0.2-1,0.4-1.5,0.8c-0.5,0.4-0.8,0.9-1.1,1.5c-0.3,0.6-0.5,1.3-0.5,2.1c-0.1,0.8,0.1,1.7,0.4,2.7
							c0.2,0.7,0.5,1.2,0.9,1.5c0.4,0.3,0.8,0.4,1.3,0.2c0.4-0.1,0.6-0.4,0.8-0.7c0.2-0.4,0.3-0.8,0.3-1.2l-1.3-4.2
							c0-0.1-0.1-0.2-0.1-0.3c0-0.1-0.1-0.2-0.1-0.2c0-0.1-0.1-0.1-0.1-0.2c0,0,0-0.1-0.1-0.1c0-0.1,0-0.3,0.1-0.4
							c0.1-0.1,0.3-0.2,0.5-0.3c0.5-0.1,0.9-0.1,1.2,0c0.3,0.2,0.6,0.4,0.7,0.7l1.4,4.5c0,0.2,0.1,0.3,0.2,0.4
							c0.1,0.1,0.2,0.3,0.3,0.3c0.1,0.1,0.2,0.2,0.4,0.2C558.3,865.3,558.4,865.3,558.6,865.3z"/>
						<path fill="#FFFFFF" d="M558,856.6c-0.1-0.3-0.2-0.4-0.2-0.5c-0.1-0.1-0.1-0.2-0.2-0.3c0-0.1,0-0.3,0.1-0.4
							c0.1-0.1,0.3-0.2,0.5-0.3c0.5-0.1,0.8-0.1,1.2,0c0.3,0.2,0.6,0.4,0.7,0.7l2.3,7.4c0.1,0.3,0.2,0.4,0.3,0.6
							c0.1,0.1,0.3,0.2,0.6,0.1c0.3-0.1,0.6-0.3,0.9-0.7c0.3-0.3,0.5-0.8,0.6-1.3c0.1-0.5,0.2-1.1,0.2-1.8c0-0.7-0.2-1.4-0.4-2.2
							c-0.2-0.6-0.4-1-0.6-1.3c-0.2-0.3-0.4-0.6-0.6-0.8c-0.2-0.2-0.4-0.3-0.5-0.4c-0.2-0.1-0.3-0.1-0.4-0.2c-0.1,0-0.2,0-0.3,0
							c-0.1,0-0.2,0-0.2-0.1c0-0.1,0-0.3,0-0.5c0-0.2,0.1-0.4,0.1-0.5s0.1-0.3,0.3-0.5c0.1-0.1,0.2-0.2,0.4-0.3c0.3-0.1,0.6,0,1,0.1
							c0.4,0.2,0.7,0.5,1.1,0.8c0.4,0.4,0.7,0.8,1.1,1.3c0.3,0.5,0.6,1.1,0.8,1.7c0.3,0.9,0.4,1.8,0.4,2.7c0,0.9-0.1,1.7-0.4,2.5
							c-0.3,0.8-0.7,1.4-1.2,2c-0.5,0.6-1.2,1-2,1.2c-0.4,0.1-0.8,0.2-1.2,0.1c-0.3-0.1-0.6-0.2-0.9-0.4c-0.3-0.2-0.5-0.4-0.7-0.7
							c-0.2-0.3-0.3-0.6-0.4-1L558,856.6z"/>
						<path fill="#FFFFFF" d="M573.6,853.1c0.2,0.5,0.2,1.1,0.2,1.6c0,0.6-0.1,1.2-0.3,1.8c-0.2,0.6-0.5,1.1-0.9,1.7
							c-0.4,0.5-0.9,1-1.5,1.4c0.2,0.2,0.3,0.4,0.6,0.6c0.2,0.2,0.4,0.3,0.7,0.4c0.3,0.1,0.5,0.1,0.8,0.1c0.3,0,0.6,0,1-0.2
							c0.5-0.2,1-0.4,1.3-0.7c0.3-0.3,0.6-0.7,0.7-1.1c0.2-0.4,0.3-0.8,0.3-1.3c0-0.5,0-0.9,0-1.4c0-0.3,0-0.6,0.2-0.7
							c0.2-0.2,0.3-0.2,0.6-0.3c0.2,0,0.4,0.1,0.6,0.2c0.2,0.1,0.3,0.3,0.4,0.6c0.1,0.3,0.1,0.6,0.1,1c0,0.4,0,0.8,0,1.2
							c-0.1,0.4-0.2,0.8-0.3,1.3c-0.2,0.4-0.4,0.8-0.7,1.2c-0.3,0.4-0.7,0.8-1.1,1.1c-0.5,0.3-1,0.6-1.7,0.8
							c-0.6,0.2-1.3,0.3-1.9,0.2c-0.7-0.1-1.3-0.3-1.9-0.6c-0.6-0.3-1.1-0.8-1.6-1.4c-0.5-0.6-0.9-1.3-1.1-2.2
							c-0.3-0.9-0.4-1.7-0.4-2.5c0-0.8,0.1-1.6,0.3-2.2c0.2-0.7,0.5-1.2,0.9-1.7c0.4-0.5,0.9-0.8,1.4-0.9c0.4-0.1,0.7-0.2,1.1-0.1
							c0.3,0,0.7,0.1,1,0.3c0.3,0.2,0.5,0.4,0.8,0.7C573.3,852.3,573.5,852.6,573.6,853.1z M570.2,857.7c0,0.1,0.1,0.2,0.1,0.2
							c0,0.1,0.1,0.2,0.1,0.2c0.3-0.3,0.5-0.6,0.7-0.9c0.2-0.3,0.3-0.7,0.4-1.1c0.1-0.4,0.1-0.8,0.1-1.2c0-0.4-0.1-0.8-0.2-1.2
							c-0.1-0.3-0.2-0.5-0.4-0.7c-0.2-0.1-0.3-0.2-0.5-0.1c-0.2,0.1-0.4,0.2-0.5,0.4c-0.1,0.2-0.2,0.4-0.3,0.7
							c-0.1,0.3-0.1,0.6-0.1,0.9c0,0.3,0,0.7,0.1,1c0,0.3,0.1,0.6,0.2,0.9C570,857.2,570.1,857.5,570.2,857.7z"/>
						<path fill="#FFFFFF" d="M582.6,854.6c0-0.3,0-0.5,0.1-0.7c0.1-0.2,0.2-0.3,0.3-0.3c0.1-0.1,0.3-0.1,0.4,0
							c0.2,0,0.3,0.1,0.4,0.2c0.1,0.1,0.3,0.2,0.4,0.4c0.1,0.1,0.2,0.3,0.2,0.5c0,0.4-0.1,0.9-0.1,1.4c-0.1,0.6-0.2,1.1-0.5,1.7
							c-0.2,0.5-0.5,1-0.9,1.5c-0.4,0.5-0.9,0.8-1.5,1c-0.5,0.2-1,0.2-1.5,0.2c-0.5,0-0.9-0.2-1.2-0.4c-0.4-0.2-0.7-0.5-1-0.9
							c-0.3-0.4-0.5-0.9-0.7-1.4l-3.9-12.4c-0.2-0.5-0.2-1-0.2-1.5c0-0.5,0.1-0.9,0.2-1.3c0.1-0.4,0.3-0.7,0.6-1
							c0.2-0.3,0.5-0.5,0.9-0.6c0.4-0.1,0.8-0.2,1.1-0.1c0.3,0.1,0.6,0.2,0.9,0.4c0.3,0.2,0.5,0.4,0.7,0.7c0.2,0.3,0.4,0.6,0.5,0.9
							c0.1,0.3,0.3,0.6,0.4,0.9c0.1,0.3,0.2,0.6,0.3,0.9c0.2,0.7,0.4,1.4,0.5,2.2c0.1,0.8,0.2,1.5,0.2,2.3c0,0.8,0,1.5,0,2.2
							c0,0.7-0.1,1.4-0.1,1.9c-0.1,0.6-0.1,1-0.2,1.4c-0.1,0.4-0.1,0.6-0.2,0.7l0.5,1.6c0.2,0.6,0.4,1,0.8,1.2s0.8,0.3,1.3,0.2
							c0.3-0.1,0.6-0.3,0.8-0.6c0.2-0.3,0.4-0.6,0.5-0.9c0.1-0.4,0.2-0.7,0.2-1.1C582.6,855.3,582.6,855,582.6,854.6z M577.4,851.7
							c0-0.2,0.1-0.5,0.1-0.8s0-0.7-0.1-1.1c0-0.4-0.1-0.8-0.1-1.3c-0.1-0.4-0.1-0.9-0.2-1.3c-0.1-0.4-0.1-0.8-0.2-1.2
							c-0.1-0.4-0.2-0.7-0.2-0.9c-0.3-0.9-0.6-1.6-0.8-1.9c-0.3-0.4-0.5-0.5-0.7-0.5c-0.1,0-0.1,0.1-0.2,0.2c0,0.1,0,0.2,0,0.3
							c0,0.1,0,0.2,0,0.4c0,0.1,0.1,0.3,0.1,0.4L577.4,851.7z"/>
						<path fill="#FFFFFF" d="M605.2,848.1c0,0.5,0,1,0,1.6s-0.2,1.1-0.3,1.6c-0.2,0.5-0.4,1-0.8,1.4c-0.4,0.4-0.8,0.7-1.4,0.9
							c-0.4,0.1-0.7,0.1-1,0.1c-0.3-0.1-0.6-0.2-0.9-0.3c-0.3-0.2-0.5-0.4-0.7-0.7c-0.2-0.3-0.4-0.6-0.5-0.9l-1.7-5.6
							c-0.1-0.2-0.1-0.4-0.2-0.6c-0.1-0.2-0.1-0.3-0.2-0.5c-0.1-0.1-0.2-0.2-0.3-0.3c-0.1-0.1-0.2-0.1-0.3,0
							c-0.2,0.1-0.4,0.3-0.6,0.6c-0.2,0.4-0.3,0.8-0.5,1.3c-0.1,0.5-0.2,1.1-0.2,1.7c0,0.6,0,1.2,0.2,1.7l1.2,4
							c0,0.1,0.1,0.3,0.1,0.4c0,0.1,0,0.3,0,0.4c0,0.1-0.1,0.2-0.1,0.4c-0.1,0.1-0.2,0.2-0.4,0.3c-0.1,0-0.3,0.1-0.4,0.1
							c-0.2,0-0.3,0-0.5,0c-0.2,0-0.3-0.1-0.4-0.3c-0.1-0.1-0.2-0.3-0.3-0.6l-2.1-6.9c-0.1-0.2-0.1-0.4-0.2-0.6
							c-0.1-0.2-0.1-0.3-0.2-0.5c-0.1-0.1-0.2-0.2-0.3-0.3c-0.1-0.1-0.2-0.1-0.3,0c-0.2,0.1-0.4,0.3-0.6,0.6
							c-0.2,0.3-0.3,0.8-0.5,1.3c-0.1,0.5-0.2,1.1-0.2,1.7c0,0.6,0,1.2,0.1,1.7l1.2,4c0,0.1,0.1,0.3,0.1,0.4c0,0.1,0,0.3,0,0.4
							s-0.1,0.2-0.1,0.4c-0.1,0.1-0.2,0.2-0.4,0.3c-0.1,0-0.3,0.1-0.5,0.1c-0.2,0-0.3,0-0.5,0c-0.2,0-0.3-0.1-0.4-0.3
							c-0.1-0.1-0.2-0.3-0.3-0.6l-2.7-8.7c-0.1-0.3-0.2-0.4-0.2-0.5c-0.1-0.1-0.1-0.2-0.2-0.3c0-0.1,0-0.3,0.1-0.4
							c0.1-0.1,0.3-0.2,0.5-0.3c0.5-0.1,0.8-0.1,1.2,0c0.3,0.2,0.6,0.4,0.7,0.7l0.4,1.1c0.1-0.4,0.1-0.8,0.3-1.2
							c0.1-0.4,0.2-0.7,0.4-1c0.2-0.3,0.4-0.6,0.6-0.8c0.2-0.2,0.5-0.4,0.8-0.5c0.4-0.1,0.8-0.2,1.1-0.1c0.3,0.1,0.6,0.2,0.8,0.4
							c0.2,0.2,0.4,0.4,0.6,0.7c0.2,0.3,0.3,0.6,0.4,0.9c0.1-0.4,0.1-0.8,0.2-1.2c0.1-0.4,0.2-0.7,0.4-1c0.2-0.3,0.4-0.6,0.6-0.8
							c0.2-0.2,0.5-0.4,0.8-0.5c0.4-0.1,0.8-0.2,1.2-0.1c0.3,0.1,0.6,0.2,0.9,0.4c0.2,0.2,0.4,0.5,0.6,0.8c0.2,0.3,0.3,0.6,0.4,0.9
							l1.8,5.7c0,0.1,0.1,0.2,0.1,0.3c0.1,0.1,0.1,0.3,0.2,0.4c0.1,0.1,0.2,0.2,0.3,0.3c0.1,0.1,0.3,0.1,0.5,0
							c0.3-0.1,0.5-0.3,0.6-0.5c0.1-0.3,0.2-0.6,0.3-0.9c0.1-0.3,0.1-0.7,0.1-1.1c0-0.4,0-0.7-0.1-1c0-0.3,0-0.5,0.1-0.7
							c0.1-0.2,0.2-0.3,0.3-0.3c0.1,0,0.2,0,0.4,0c0.1,0,0.3,0.1,0.4,0.2c0.1,0.1,0.2,0.2,0.3,0.3c0.1,0.1,0.2,0.2,0.2,0.4
							c0,0,0,0,0,0.1C605.2,848,605.2,848.1,605.2,848.1z"/>
						<path fill="#FFFFFF" d="M613.4,844.5c0-0.1,0-0.2,0.1-0.3c0.1-0.1,0.2-0.2,0.3-0.3c0.1-0.1,0.3-0.1,0.4-0.1
							c0.2,0,0.3,0,0.4,0.1c0.1,0.1,0.3,0.2,0.4,0.3c0.1,0.1,0.2,0.4,0.2,0.6c0,0.4,0,0.8-0.1,1.2c-0.1,0.4-0.2,0.7-0.4,1.1
							c-0.2,0.3-0.5,0.6-0.8,0.9c-0.3,0.3-0.7,0.5-1.2,0.6c-0.2,0.1-0.5,0.1-0.7,0.2c-0.2,0-0.5,0.1-0.7,0c-0.2,0.7-0.4,1.3-0.9,1.8
							c-0.4,0.5-1,0.9-1.8,1.2c-0.7,0.2-1.3,0.3-1.9,0.1c-0.6-0.1-1.1-0.4-1.6-0.7c-0.5-0.4-0.9-0.8-1.2-1.4
							c-0.3-0.6-0.6-1.2-0.8-1.9c-0.3-1-0.5-1.9-0.5-2.8c0-0.9,0.1-1.6,0.2-2.3c0.1-0.7,0.3-1.2,0.5-1.6c0.2-0.4,0.4-0.6,0.6-0.7
							c0.2-0.1,0.4,0,0.6,0.1c0.2,0.1,0.4,0.3,0.5,0.4c0.1,0.2,0.2,0.4,0.2,0.6c0,0.2,0,0.4-0.2,0.6c-0.1,0.2-0.1,0.4-0.2,0.7
							c-0.1,0.3-0.1,0.6-0.2,1c0,0.4,0,0.8,0.1,1.3c0.1,0.5,0.2,1.1,0.4,1.8c0.2,0.6,0.4,1.1,0.6,1.5c0.2,0.4,0.5,0.7,0.8,0.9
							c0.3,0.2,0.5,0.4,0.8,0.5c0.3,0.1,0.6,0.1,0.8,0c0.4-0.1,0.7-0.3,0.9-0.6c0.2-0.3,0.3-0.6,0.4-1c-0.8-0.4-1.5-0.9-2.1-1.7
							c-0.6-0.7-1-1.6-1.4-2.6c-0.1-0.4-0.2-0.8-0.2-1.3c0-0.4,0-0.8,0.1-1.1c0.1-0.4,0.2-0.7,0.5-0.9c0.2-0.3,0.5-0.4,0.9-0.6
							c0.3-0.1,0.7-0.1,1,0.1c0.4,0.1,0.7,0.4,1,0.7c0.3,0.3,0.7,0.8,1,1.3c0.3,0.5,0.5,1.1,0.7,1.8c0.2,0.5,0.3,1,0.4,1.5
							c0.1,0.5,0.1,1,0.2,1.5c0.1,0,0.2,0,0.3,0c0.1,0,0.2,0,0.3-0.1c0.3-0.1,0.5-0.2,0.7-0.4c0.2-0.2,0.3-0.4,0.4-0.6
							c0.1-0.2,0.2-0.5,0.2-0.7C613.4,845,613.4,844.8,613.4,844.5z M607.4,843.6c0.2,0.6,0.5,1.2,0.8,1.7c0.4,0.5,0.8,0.9,1.2,1.2
							c-0.1-0.5-0.2-0.9-0.3-1.3c-0.1-0.5-0.3-0.9-0.4-1.3c-0.1-0.4-0.3-0.7-0.4-1c-0.1-0.3-0.3-0.5-0.4-0.6
							c-0.1-0.1-0.3-0.2-0.4-0.1C607.1,842.2,607.1,842.7,607.4,843.6z"/>
						<path fill="#FFFFFF" d="M621,847.9c-0.3,0.1-0.7,0.2-1,0.2c-0.4,0-0.7-0.1-1.1-0.2c-0.3-0.2-0.7-0.4-1-0.7
							c-0.3-0.3-0.5-0.8-0.7-1.4c-0.3-0.9-0.4-1.8-0.5-2.9c-0.1-1.1-0.1-2.2,0-3.6l-2.1,0.6l-0.3,0.1c0.1,0.3,0.2,0.6,0.3,1
							c0.1,0.4,0.2,0.9,0.3,1.3c0.1,0.5,0.2,1,0.2,1.5c0.1,0.5,0.1,1,0.1,1.4c0,0.3-0.1,0.5-0.3,0.6c-0.2,0.1-0.4,0.1-0.6,0.1
							c-0.2-0.1-0.4-0.2-0.6-0.3s-0.3-0.4-0.3-0.6c0-0.3-0.1-0.7-0.1-1.1c-0.1-0.4-0.2-0.8-0.3-1.3c-0.1-0.5-0.2-0.9-0.3-1.3
							c-0.1-0.4-0.2-0.8-0.3-1.2c-0.4-0.1-0.8-0.2-1.1-0.5c-0.3-0.2-0.5-0.5-0.7-0.9c-0.1-0.2-0.1-0.4,0-0.5c0-0.2,0.1-0.3,0.2-0.5
							c0.1-0.1,0.2-0.3,0.4-0.4c0.2-0.1,0.3-0.2,0.5-0.2c0.2,0,0.3-0.1,0.5-0.1c0.2,0,0.4,0,0.6,0.1c0.2,0.1,0.4,0.2,0.6,0.3
							c0.2,0.1,0.4,0.3,0.5,0.6c0.2,0,0.4-0.1,0.6-0.1c0.2,0,0.3-0.1,0.4-0.1c0.1,0,0.2,0,0.3-0.1c0.1,0,0.1,0,0.2-0.1l1.4-0.4
							c0.1,0,0.2,0,0.4,0c0.2,0,0.4,0.1,0.6,0.2c0.2,0.1,0.4,0.2,0.5,0.4c0.2,0.1,0.2,0.3,0.3,0.5c0,0.1,0,0.2,0,0.4
							c0,0.2,0,0.5,0,0.8c0,0.3,0,0.7,0,1.2c0,0.4,0.1,0.9,0.1,1.4c0.1,0.5,0.1,1,0.2,1.5c0.1,0.5,0.2,1,0.3,1.4
							c0.1,0.2,0.1,0.4,0.2,0.5c0.1,0.2,0.2,0.3,0.3,0.4c0.1,0.1,0.3,0.2,0.4,0.2c0.2,0,0.3,0,0.5,0c0.3-0.1,0.5-0.3,0.7-0.5
							s0.3-0.6,0.3-0.9c0.1-0.3,0.1-0.7,0.1-1.1c0-0.4,0-0.7-0.1-1c0-0.3,0-0.5,0.1-0.7c0.1-0.2,0.2-0.3,0.3-0.3c0.1,0,0.2,0,0.4,0
							c0.1,0,0.3,0.1,0.4,0.2c0.1,0.1,0.2,0.2,0.3,0.3c0.1,0.1,0.2,0.2,0.2,0.4c0,0,0,0.1,0,0.1c0,0,0,0.1,0,0.1c0,0.5,0,1,0,1.6
							c0,0.6-0.2,1.1-0.3,1.6c-0.2,0.5-0.4,1-0.8,1.4C622,847.4,621.6,847.7,621,847.9z"/>
						<path fill="#FFFFFF" d="M627,836.5c0.2,0.5,0.2,1.1,0.2,1.6c0,0.6-0.1,1.2-0.3,1.8c-0.2,0.6-0.5,1.1-0.9,1.7
							c-0.4,0.5-0.9,1-1.5,1.4c0.2,0.2,0.3,0.4,0.6,0.6c0.2,0.2,0.4,0.3,0.7,0.4c0.3,0.1,0.5,0.1,0.8,0.1c0.3,0,0.6-0.1,1-0.2
							c0.5-0.2,1-0.4,1.3-0.7c0.3-0.3,0.6-0.7,0.7-1.1s0.3-0.8,0.3-1.3c0-0.5,0-0.9,0-1.4c0-0.3,0-0.6,0.2-0.7
							c0.2-0.2,0.3-0.2,0.6-0.3c0.2,0,0.4,0.1,0.6,0.2c0.2,0.1,0.3,0.3,0.4,0.6c0,0.3,0.1,0.6,0.1,1c0,0.4,0,0.8,0,1.2
							c-0.1,0.4-0.2,0.8-0.3,1.3c-0.2,0.4-0.4,0.8-0.7,1.2c-0.3,0.4-0.7,0.8-1.1,1.1c-0.5,0.3-1,0.6-1.7,0.8
							c-0.6,0.2-1.3,0.3-1.9,0.2c-0.7-0.1-1.3-0.3-1.9-0.6c-0.6-0.3-1.1-0.8-1.6-1.4c-0.5-0.6-0.9-1.3-1.1-2.2
							c-0.3-0.9-0.4-1.7-0.4-2.5c0-0.8,0.1-1.6,0.3-2.2c0.2-0.7,0.5-1.2,0.9-1.7c0.4-0.5,0.9-0.8,1.4-0.9c0.4-0.1,0.7-0.2,1.1-0.1
							c0.3,0,0.7,0.1,1,0.3c0.3,0.2,0.5,0.4,0.8,0.7C626.7,835.7,626.9,836.1,627,836.5z M623.6,841.1c0,0.1,0.1,0.2,0.1,0.2
							c0,0.1,0.1,0.2,0.1,0.2c0.3-0.3,0.5-0.6,0.7-0.9c0.2-0.3,0.3-0.7,0.4-1.1c0.1-0.4,0.1-0.8,0.1-1.2c0-0.4-0.1-0.8-0.2-1.2
							c-0.1-0.3-0.2-0.5-0.4-0.7c-0.2-0.1-0.3-0.2-0.5-0.1c-0.2,0.1-0.4,0.2-0.5,0.4c-0.1,0.2-0.2,0.4-0.3,0.7
							c-0.1,0.3-0.1,0.6-0.1,0.9c0,0.3,0,0.7,0.1,1s0.1,0.6,0.2,0.9C623.5,840.6,623.5,840.9,623.6,841.1z"/>
					</g>
				</g>
			</g>
			<g>
				<path fill="#B0D3D5" d="M832.5,802.5c0-1.2-0.8-2.2-1.7-2.2h-67.5c-0.9,0-1.7,1-1.7,2.2l11.4,90.4c0,1.2,0.8,2.2,1.7,2.2h44.7
					c0.9,0,1.7-1,1.7-2.2L832.5,802.5z"/>
				<polygon fill="#7CB6B9" points="823.3,875.6 828.6,833.4 765.5,833.4 770.8,875.6 				"/>
				<polygon fill="#3A3E54" points="833,800.2 824.3,788.8 769.4,788.8 760.7,800.2 				"/>
				<path fill="#565970" d="M835.4,801c0-1.2-1-2.2-2.2-2.2h-72.8c-1.2,0-2.2,1-2.2,2.2v4.1c0,1.2,1,2.2,2.2,2.2h72.8
					c1.2,0,2.2-1,2.2-2.2V801z"/>
				<circle fill="#FFFFFF" cx="797" cy="854.5" r="15.5"/>
				<path fill="#A1C9C9" d="M806.4,855.8c-1.1,0.1-2.2-0.6-2.2-2c0-1.3,1-2,2-2c-1.1-3.9-4.8-6.8-9.1-6.8c-4.6,0-8.5,3.3-9.3,7.8
					c1.1,0,2.1,0.7,2.1,2c0,1.3-1,2-2,2c1,4.1,4.7,7.2,9.2,7.2C801.8,863.9,805.7,860.4,806.4,855.8z"/>
			</g>
		</g>
		<g>
			<g>
				<g>
					<g>
						<path id="XMLID_4_" fill="#FFDCD8" d="M993.9,94.3v77.4c0,9.8-7.9,17.7-17.7,17.7h-8.1v18v23.9c0,1.9-2.3,2.7-3.5,1.3
							l-44.8-43.3h-52.8c-9.8,0-17.7-7.9-17.7-17.7V94.3c0-9.8,7.9-17.7,17.7-17.7h109.4C986,76.6,993.9,84.5,993.9,94.3z"/>
					</g>
					<g>
						<path id="XMLID_3_" fill="#B0D3D5" d="M430,101.4v77.4c0,9.8,7.9,17.7,17.7,17.7h8.1v18v23.9c0,1.9,2.3,2.7,3.5,1.3l44.8-43.3
							H717c9.8,0,17.7-7.9,17.7-17.7v-77.4c0-9.8-7.9-17.7-17.7-17.7H447.7C437.9,83.7,430,91.6,430,101.4z"/>
						<g>
							<g>
								<g>
									<path fill="#FFFFFF" d="M641.7,123.2c21.7-0.2,43.5-0.2,65.2,0c6.5,0.1,6.4-9.9,0-10c-21.7-0.2-43.5-0.2-65.2,0
										C635.2,113.3,635.2,123.3,641.7,123.2L641.7,123.2z"/>
								</g>
							</g>
							<g>
								<g>
									<path fill="#FFFFFF" d="M533.8,123.1c29.4,0,58.8,0,88.2,0.2c6.4,0,6.4-10,0-10c-29.4-0.1-58.8-0.2-88.2-0.2
										C527.4,113.1,527.4,123.1,533.8,123.1L533.8,123.1z"/>
								</g>
							</g>
							<g>
								<g>
									<path fill="#FFFFFF" d="M461.4,123.2c17-0.1,33.9-0.1,50.9-0.2c6.4,0,6.4-10,0-10c-17,0-33.9,0.1-50.9,0.2
										C455,113.3,455,123.3,461.4,123.2L461.4,123.2z"/>
								</g>
							</g>
							<g>
								<g>
									<path fill="#FFFFFF" d="M513.1,144.8c55.7,0,111.5,0,167.2,0c9.8,0,19.7,0,29.5,0c6.4,0,6.4-10,0-10
										c-55.7,0-111.5,0-167.2,0c-9.8,0-19.7,0-29.5,0C506.7,134.8,506.7,144.8,513.1,144.8L513.1,144.8z"/>
								</g>
							</g>
							<g>
								<g>
									<path fill="#FFFFFF" d="M461.4,144.8c9.8,0,19.6,0,29.4,0c6.4,0,6.4-10,0-10c-9.8,0-19.6,0-29.4,0
										C455,134.8,455,144.8,461.4,144.8L461.4,144.8z"/>
								</g>
							</g>
							<g>
								<g>
									<path fill="#FFFFFF" d="M624,166.3c29.1-0.3,58.3-0.3,87.4,0c6.5,0.1,6.4-9.9,0-10c-29.1-0.3-58.3-0.3-87.4,0
										C617.6,156.4,617.5,166.4,624,166.3L624,166.3z"/>
								</g>
							</g>
							<g>
								<g>
									<path fill="#FFFFFF" d="M501.5,166.3c34.6-0.3,69.2-0.3,103.8,0c6.5,0.1,6.4-9.9,0-10c-34.6-0.3-69.2-0.3-103.8,0
										C495,156.4,495,166.4,501.5,166.3L501.5,166.3z"/>
								</g>
							</g>
						</g>
					</g>
				</g>
				<g>
					<g>
						<g>
							<g>
								<path fill="#FFFFFF" d="M972.3,127.9c0.5,0,1,0,1.5,0.1l0.1-12.2l-67.9-0.5c-0.2,1.3-1.2,2.4-2.9,2.4
									c-1.7,0-2.8-1.1-3.2-2.4l-29.4-0.2l-0.1,11.3c4.7,0.6,8.6,4.1,8.9,9.2c0.3,5-3.8,10.3-9.1,10.4l-0.1,13.8l30.2,0.2
									c-0.1-1.6,0.9-3.3,3-3.3c2.1,0,3.3,1.7,3.4,3.3l67,0.5l0.1-13c-0.1,0-0.2,0-0.2,0c-5.4,0-10.1-3.7-10.4-9.3
									C962.7,133.2,966.9,127.9,972.3,127.9z"/>
							</g>
							<g>
								<line fill="#E5E9EA" x1="902.8" y1="117.5" x2="902.7" y2="129.3"/>
							</g>
							<g>
								<line fill="#E5E9EA" x1="902.7" y1="134.2" x2="902.6" y2="146"/>
							</g>
							<g>
								<line fill="#E5E9EA" x1="902.6" y1="150.3" x2="902.5" y2="156.2"/>
							</g>
							<g>
								
									<rect x="911.4" y="122.4" transform="matrix(1 7.918583e-03 -7.918583e-03 1 1.1161 -7.2442)" fill="#FFDCD8" width="7.9" height="29.8"/>
							</g>
							<g>
								<line fill="#E5E9EA" x1="886.1" y1="123.1" x2="886" y2="138.8"/>
							</g>
							<g>
								<line fill="#FFFFFF" x1="885.9" y1="146.2" x2="885.9" y2="153.3"/>
							</g>
						</g>
					</g>
					<g>
						<path fill="#FFDCD8" d="M932.6,149.8c0,0-0.5,1.6,0.1,2c0,0,0.3,0.4,1.8-0.1l3.3,4.8c0,0,0.8-0.3,1-1.2l-0.5-6.2l5.9-6.3
							l8.1,11.5c0,0,0.4,0.4,1-0.1c0,0,0.8-0.6,0.4-1.7l-4.1-15.8l5.4-5.9c0,0,2.1-3.1,0.8-4.5c0,0-2-1.1-4.9,1.8l-4.9,5.2
							l-16.7-2.7c0,0-1.4,0.1-1.1,1.4l12.4,7.3l-5.8,6.3l-6.3,0.2c0,0-1,0.5-0.9,1.1L932.6,149.8z"/>
					</g>
				</g>
			</g>
			<g>
				<g>
					<path fill="#7CB6B9" d="M1129.1,418.7h-4.9v-4.9c0-1.5-1.2-2.8-2.8-2.8c-1.5,0-2.8,1.2-2.8,2.8v4.9h-4.9
						c-1.5,0-2.8,1.2-2.8,2.8c0,1.5,1.2,2.8,2.8,2.8h4.9v4.9c0,1.5,1.2,2.8,2.8,2.8c1.5,0,2.8-1.2,2.8-2.8v-4.9h4.9
						c1.5,0,2.8-1.2,2.8-2.8C1131.9,419.9,1130.7,418.7,1129.1,418.7z"/>
					<path fill="#7CB6B9" d="M286.1,466.7h-4.9v-4.9c0-1.5-1.2-2.8-2.8-2.8c-1.5,0-2.8,1.2-2.8,2.8v4.9h-4.9c-1.5,0-2.8,1.2-2.8,2.8
						c0,1.5,1.2,2.8,2.8,2.8h4.9v4.9c0,1.5,1.2,2.8,2.8,2.8c1.5,0,2.8-1.2,2.8-2.8v-4.9h4.9c1.5,0,2.8-1.2,2.8-2.8
						C288.8,467.9,287.6,466.7,286.1,466.7z"/>
					<path fill="#FFD9A0" d="M271.3,406.5l-3.5,3.5l-3.5-3.5c-1.1-1.1-2.8-1.1-3.9,0c-1.1,1.1-1.1,2.8,0,3.9l3.5,3.5l-3.5,3.5
						c-1.1,1.1-1.1,2.8,0,3.9c1.1,1.1,2.8,1.1,3.9,0l3.5-3.5l3.5,3.5c1.1,1.1,2.8,1.1,3.9,0c1.1-1.1,1.1-2.8,0-3.9l-3.5-3.5l3.5-3.5
						c1.1-1.1,1.1-2.8,0-3.9C274.1,405.4,272.4,405.4,271.3,406.5z"/>
					<path fill="#FFD9A0" d="M1119.4,368.8l-3.5,3.5l-3.5-3.5c-1.1-1.1-2.8-1.1-3.9,0c-1.1,1.1-1.1,2.9,0,3.9l3.5,3.5l-3.5,3.5
						c-1.1,1.1-1.1,2.8,0,3.9c1.1,1.1,2.8,1.1,3.9,0l3.5-3.5l3.5,3.5c1.1,1.1,2.8,1.1,3.9,0c1.1-1.1,1.1-2.8,0-3.9l-3.5-3.5l3.5-3.5
						c1.1-1.1,1.1-2.8,0-3.9C1122.2,367.7,1120.4,367.7,1119.4,368.8z"/>
					<path fill="#FFDCD8" d="M248,446.5c0,2.8-2.3,5.2-5.2,5.2c-2.8,0-5.2-2.3-5.2-5.2c0-2.8,2.3-5.2,5.2-5.2
						C245.6,441.4,248,443.7,248,446.5z"/>
					<path fill="#7CB6B9" d="M816.3,143.2l1.8,4.6l-4.6,1.8c-1.4,0.6-2.1,2.2-1.6,3.6c0.6,1.4,2.2,2.1,3.6,1.6l4.6-1.8l1.8,4.6
						c0.6,1.4,2.2,2.1,3.6,1.6c1.4-0.6,2.1-2.2,1.6-3.6l-1.8-4.6l4.6-1.8c1.4-0.6,2.1-2.2,1.6-3.6c-0.6-1.4-2.2-2.1-3.6-1.6
						l-4.6,1.8l-1.8-4.6c-0.6-1.4-2.2-2.1-3.6-1.6C816.5,140.2,815.8,141.8,816.3,143.2z"/>
					<path fill="#FFD9A0" d="M768.6,149.1l4.5,2l-2,4.5c-0.6,1.4,0,3,1.5,3.7c1.4,0.6,3.1,0,3.7-1.5l1.9-4.5l4.5,2
						c1.4,0.6,3,0,3.7-1.4c0.6-1.4,0-3-1.5-3.7l-4.5-2l2-4.5c0.6-1.4,0-3-1.4-3.7c-1.4-0.6-3.1,0-3.7,1.4l-2,4.5l-4.5-2
						c-1.4-0.6-3,0-3.7,1.5C766.5,146.8,767.2,148.4,768.6,149.1z"/>
					<path fill="#FFDCD8" d="M781.4,109.6c2.6-1.1,5.6,0.2,6.7,2.9c1,2.6-0.2,5.7-2.9,6.7c-2.6,1-5.6-0.2-6.7-2.9
						C777.4,113.6,778.7,110.6,781.4,109.6z"/>
					<path fill="#FFDCD8" d="M1155.2,403c0,2.8-2.3,5.2-5.2,5.2c-2.8,0-5.2-2.3-5.2-5.2c0-2.8,2.3-5.2,5.2-5.2
						C1152.9,397.8,1155.2,400.1,1155.2,403z"/>
					<path fill="#7CB6B9" d="M381.1,165.8h-4.9v-4.9c0-1.5-1.2-2.8-2.8-2.8c-1.5,0-2.8,1.2-2.8,2.8v4.9h-4.9c-1.5,0-2.8,1.2-2.8,2.8
						c0,1.5,1.2,2.8,2.8,2.8h4.9v4.9c0,1.5,1.2,2.8,2.8,2.8c1.5,0,2.8-1.2,2.8-2.8v-4.9h4.9c1.5,0,2.8-1.2,2.8-2.8
						C383.9,167,382.6,165.8,381.1,165.8z"/>
					<path fill="#FFD9A0" d="M371.3,115.9l-3.5,3.5l-3.5-3.5c-1.1-1.1-2.8-1.1-3.9,0c-1.1,1.1-1.1,2.9,0,3.9l3.5,3.5l-3.5,3.5
						c-1.1,1.1-1.1,2.8,0,3.9c1.1,1.1,2.8,1.1,3.9,0l3.5-3.5l3.5,3.5c1.1,1.1,2.8,1.1,3.9,0c1.1-1.1,1.1-2.8,0-3.9l-3.5-3.5l3.5-3.5
						c1.1-1.1,1.1-2.8,0-3.9C374.2,114.8,372.4,114.8,371.3,115.9z"/>
					<path fill="#FFDCD8" d="M407.1,150.1c0,2.8-2.3,5.2-5.2,5.2c-2.8,0-5.2-2.3-5.2-5.2c0-2.8,2.3-5.2,5.2-5.2
						C404.8,144.9,407.1,147.3,407.1,150.1z"/>
				</g>
			</g>
		</g>
	</g>
</g>
</svg>
