<?xml version="1.0" encoding="utf-8"?>
<!-- Generator: Adobe Illustrator 21.0.0, SVG Export Plug-In . SVG Version: 6.00 Build 0)  -->
<svg version="1.1" id="Layer_1" xmlns="http://www.w3.org/2000/svg" xmlns:xlink="http://www.w3.org/1999/xlink" x="0px" y="0px"
	 width="2000px" height="2000px" viewBox="0 0 2000 2000" style="enable-background:new 0 0 2000 2000;" xml:space="preserve">
<style type="text/css">
	.st0{fill:#FFFFFF;}
	.st1{fill:url(#SVGID_1_);}
	.st2{fill:#FCC3BB;}
	.st3{fill:#FCDAD4;}
	.st4{fill:#F9CAC0;}
	.st5{fill:#F4B5B0;}
	.st6{fill:#FFE3E1;}
	.st7{fill:#F4ABA2;}
	.st8{fill:#FFE8E3;}
	.st9{fill:#5D4777;}
	.st10{fill:#493960;}
	.st11{fill:#533C6A;}
	.st12{fill:url(#SVGID_2_);}
	.st13{fill:url(#SVGID_3_);}
	.st14{fill:url(#SVGID_4_);}
	.st15{fill:url(#SVGID_5_);}
	.st16{fill:url(#SVGID_6_);}
	.st17{fill:#F9FFFF;}
	.st18{fill:url(#SVGID_7_);}
	.st19{fill:url(#SVGID_8_);}
	.st20{fill:#B25DAC;}
	.st21{fill:url(#SVGID_9_);}
	.st22{fill:url(#SVGID_10_);}
	.st23{fill:url(#SVGID_11_);}
</style>
<g>
	<rect y="0" class="st0" width="2000" height="2000"/>
	<linearGradient id="SVGID_1_" gradientUnits="userSpaceOnUse" x1="1000" y1="285.2232" x2="1000" y2="1563.8766">
		<stop  offset="0" style="stop-color:#F9CAC0"/>
		<stop  offset="1" style="stop-color:#F9B7AC"/>
	</linearGradient>
	<path class="st1" d="M1841.8,1293.3c-23.4-45.7-43.6-86.2-55.8-135.7c-13.3-53.6-14.3-109.3-9.3-165.1
		c10.3-115.1,48.2-227.9,65.6-343c16.3-107.8,15.4-219.4-34.6-318c-42.4-83.4-116.7-148.5-208.8-157.8
		c-57.1-5.8-114.1,11.7-167.9,29.5c-52.3,17.3-104.6,33.1-158.6,43.5c-105.9,20.6-217,23.6-325.1,9.9
		c-52.8-6.7-108.2-19.3-160.8-34.4c-53.9-15.4-107.2-33-161.9-45.3c-103.9-23.4-218-27.3-312.7,30.5
		C233.1,255.7,180,336.9,147.3,424c-38,101.2-44,211.2-43.5,318.8c0.3,60.9,2.7,121.8,2.2,182.7c-0.5,59.8-4.9,119.2-10.8,178.6
		c-11.3,113.9-26.5,228.6-15,343.2c10.5,105.4,41.8,208.6,108.7,290.4c61.6,75.3,148.5,125.1,238.7,153
		c105,32.5,216.3,34.6,324.7,25.6c40.4-3.3,80.7-8.1,120.9-13.3c104.5-10.5,211.3,6.2,315.2,18.7c107,13,216.2,22.8,323.6,9.1
		c101.6-13,199.4-46.8,278.6-116.1c69.6-60.9,120.7-146.3,131.5-241.2C1933.7,1471.5,1886.3,1380.2,1841.8,1293.3z"/>
	<g>
		<path class="st2" d="M1686.9,1250.3c-77.5,31.4-157.1,57-236.8,82.1c-96.3,30.4-193.1,59.4-290.6,85.6
			c-192.7,51.8-388.8,93.5-587.6,112.5c-159.1,15.3-320.2,16.5-479.1-2.1c4.5,20.6,9.9,40.9,16.4,60.8
			c130.2,13.8,261.8,15.2,392.4,6.1c205.3-14.2,408.4-52.4,607.6-103.2c99.5-25.4,198.2-53.8,296.3-84.1
			c85.8-26.4,171.7-53,255.7-84.7c54.3-20.5,108.5-43.5,160.4-70.6c-8.6-17.9-16.3-35.6-23-54.1
			C1762.2,1218,1724.6,1235.1,1686.9,1250.3z"/>
		<path class="st3" d="M1631.1,397.5c61.5-14.4,121.8-34.3,179.5-60c-1-2-1.9-4-2.9-5.9c-8.1-15.9-17.4-31.2-27.7-45.5
			c-142.4,61.6-300.2,85.9-456.2,86.8c-244,1.5-489.5-47.4-721.5-120.5c-72.7-22.9-144.4-48.8-214.8-77.6
			c-25.8,7.3-50.8,17.9-74.7,32.3C507.7,291.3,712,353.9,920.9,392.4C1154.3,435.3,1398.1,452.2,1631.1,397.5z"/>
		<path class="st4" d="M104.7,806.7C296.1,909.9,496.7,996,705.5,1057c286.5,83.8,589.2,118.7,886.6,85.9
			c62.4-6.9,124.4-16.6,185.7-29.4c-2.5-19.7-3.7-39.5-3.8-59.5c-187.3,39.8-380.7,50.4-572.1,35.8
			c-290.5-22.2-575.1-103.9-840.6-222.3c-15.2-6.8-30.4-13.7-45.6-20.8c19.5,5.3,39.2,10.2,58.9,14.9c164.6,39,334.9,57.5,504,48.3
			c151.9-8.3,302.3-38.5,444.1-93.8c135.2-52.7,261.6-125.5,373.5-218.2c53.9-44.7,104.1-94.2,149.4-147.8
			c-3.9-24.4-9.7-48.4-17.9-71.9c-39.9,51.4-84.5,99.3-133.1,143.3c-102.1,92.4-220.6,166.2-346.9,221
			c-129.9,56.4-269.7,91-410.6,104.1c-163.4,15.2-328.6,3.8-489.2-29.1c-117.4-24.1-232.5-59-343.9-103.2c-0.1,9.5-0.1,19,0,28.5
			C103.9,764.1,104.3,785.4,104.7,806.7z"/>
	</g>
	<path class="st5" d="M1693.6,313.3c-13.9-1.8-22.5-3.9-22.5-3.9s-25.4-20.4-90.4,9.9s-225.4,98.4-246.2,95.6
		c-20.8-2.8-80.6-49.9-89.6-46.3l-23.5,9.2c-2.7,1.1-3.5,4.6-1.5,6.7c15.1,15.9,64.9,68.7,61.6,71.8c-2.5,2.4-10.1,8.5-15.2,12.5
		c-2.9,2.3-4,6.2-2.6,9.7l1.2,3.1c1.3,3.5,4.8,5.6,8.5,5.3c16.8-1.3,63.8-5.7,91.1-17.8c33.8-14.9,141.5-55.2,141.5-55.2
		s0.9,15.8,22.7,12c21.8-3.9,51.1-18.2,51.3-25.3c0.2-7-1.9-13.8,2.6-15.6c4.5-1.8,90.4-35.3,106.7-45.8
		C1705.5,329,1708.4,315.2,1693.6,313.3z M1392.3,422.4c0.5,1.3-0.1,2.9-1.5,3.4l-3.1,1.2c-1.3,0.5-2.9-0.1-3.4-1.5l-3.5-8.9
		c-0.5-1.3,0.1-2.9,1.5-3.4l3.1-1.2c1.3-0.5,2.9,0.1,3.4,1.5L1392.3,422.4z M1410.6,415.2c0.5,1.3-0.1,2.9-1.5,3.4l-3.1,1.2
		c-1.3,0.5-2.9-0.1-3.4-1.5l-3.5-8.9c-0.5-1.3,0.1-2.9,1.5-3.4l3.1-1.2c1.3-0.5,2.9,0.1,3.4,1.5L1410.6,415.2z M1428.9,408.1
		c0.5,1.3-0.1,2.9-1.5,3.4l-3.1,1.2c-1.3,0.5-2.9-0.1-3.4-1.5l-3.5-8.9c-0.5-1.3,0.1-2.9,1.5-3.4l3.1-1.2c1.3-0.5,2.9,0.1,3.4,1.5
		L1428.9,408.1z M1447.3,400.9c0.5,1.3-0.1,2.9-1.5,3.4l-3.1,1.2c-1.3,0.5-2.9-0.1-3.4-1.5l-3.5-8.9c-0.5-1.3,0.1-2.9,1.5-3.4
		l3.1-1.2c1.3-0.5,2.9,0.1,3.4,1.5L1447.3,400.9z M1465.6,393.8c0.5,1.3-0.1,2.9-1.5,3.4l-3.1,1.2c-1.3,0.5-2.9-0.1-3.4-1.5
		l-3.5-8.9c-0.5-1.3,0.1-2.9,1.5-3.4l3.1-1.2c1.3-0.5,2.9,0.1,3.4,1.5L1465.6,393.8z M1483.9,386.6c0.5,1.3-0.1,2.9-1.5,3.4
		l-3.1,1.2c-1.3,0.5-2.9-0.1-3.4-1.5l-3.5-8.9c-0.5-1.3,0.1-2.9,1.5-3.4l3.1-1.2c1.3-0.5,2.9,0.1,3.4,1.5L1483.9,386.6z
		 M1502.2,379.5c0.5,1.3-0.1,2.9-1.5,3.4l-3.1,1.2c-1.3,0.5-2.9-0.1-3.4-1.5l-3.5-8.9c-0.5-1.3,0.1-2.9,1.5-3.4l3.1-1.2
		c1.3-0.5,2.9,0.1,3.4,1.5L1502.2,379.5z M1520.5,372.3c0.5,1.3-0.1,2.9-1.5,3.4l-3.1,1.2c-1.3,0.5-2.9-0.1-3.4-1.5l-3.5-8.9
		c-0.5-1.3,0.1-2.9,1.5-3.4l3.1-1.2c1.3-0.5,2.9,0.1,3.4,1.5L1520.5,372.3z M1538.8,365.2c0.5,1.3-0.1,2.9-1.5,3.4l-3.1,1.2
		c-1.3,0.5-2.9-0.1-3.4-1.5l-3.5-8.9c-0.5-1.3,0.1-2.9,1.5-3.4l3.1-1.2c1.3-0.5,2.9,0.1,3.4,1.5L1538.8,365.2z M1557.1,358
		c0.5,1.3-0.1,2.9-1.5,3.4l-3.1,1.2c-1.3,0.5-2.9-0.1-3.4-1.5l-3.5-8.9c-0.5-1.3,0.1-2.9,1.5-3.4l3.1-1.2c1.3-0.5,2.9,0.1,3.4,1.5
		L1557.1,358z M1575.4,350.9c0.5,1.3-0.1,2.9-1.5,3.4l-3.1,1.2c-1.3,0.5-2.9-0.1-3.4-1.5l-3.5-8.9c-0.5-1.3,0.1-2.9,1.5-3.4l3.1-1.2
		c1.3-0.5,2.9,0.1,3.4,1.5L1575.4,350.9z M1593.7,343.7c0.5,1.3-0.1,2.9-1.5,3.4l-3.1,1.2c-1.3,0.5-2.9-0.1-3.4-1.5l-3.5-8.9
		c-0.5-1.3,0.1-2.9,1.5-3.4l3.1-1.2c1.3-0.5,2.9,0.1,3.4,1.5L1593.7,343.7z M1620.9,340.1c0.5,1.3-0.1,2.9-1.5,3.4l-10.1,4
		c-1.3,0.5-2.9-0.1-3.4-1.5l-8.2-21c-0.5-1.3,0.1-2.9,1.5-3.4l10.1-4c1.3-0.5,2.9,0.1,3.4,1.5L1620.9,340.1z"/>
	<g>
		<g>
			<g>
				<path class="st6" d="M1577.9,651.3c22,3.5,41.9,14.7,63.9,18.3c21.6,3.5,40.6-4,60.8-10.6c10.5-3.5,21.5-6.4,32.7-5.7
					c11.3,0.7,21.9,5.3,32.5,9c20.2,7.1,39.7,6.9,60.2,1.2c4.3-1.2,8.6-2.5,12.8-4c0.5-3.3,1.1-6.7,1.6-10.1
					c5.9-38.7,9.5-77.9,9.4-116.8c-12.8,2.6-24.7,11.3-36.8,15.4c-9.3,3.1-18.7,3.2-27.7-1c-7.9-3.8-14.5-9.8-20.7-15.9
					c-12.9-12.7-24.7-25.8-42-32.6c-16.6-6.5-35.3-7.3-52.5-2.8c-17.5,4.5-31.6,14.6-43.1,28.2c-11.1,13.1-21.9,30.7-39.6,35.2
					c-20.9,5.3-39.8-11.4-60.6-10.5c-19.2,0.8-33.8,16-40.9,32.9c-2.9,6.9-4.7,14.2-6.1,21.5c-0.3,0.3-0.6,0.7-0.7,1.3
					c-0.3,1.8-0.5,3.6-0.4,5.4c-0.2,1.2-0.3,2.3-0.5,3.5c-0.2,1.2,0.4,2.1,1.2,2.6c2.8,13.1,14,23.4,26.5,28.8
					C1529.9,654.3,1554.8,647.6,1577.9,651.3z"/>
			</g>
			<g>
				<path class="st6" d="M1147.2,369.2c-18.3-10.6-40.5-7.9-60.5-11.9c-10.2-2.1-19.1-6-27-12.8c-6.6-5.7-13.2-11.9-22.2-13.2
					c-16.3-2.3-30.4,9.7-45,14.7c-8.6,2.9-17.4,3-25.6-1c-7.3-3.5-13.5-9.1-19.2-14.7c-12-11.8-22.9-23.9-38.9-30.2
					c-15.4-6-32.7-6.8-48.7-2.6c-16.2,4.2-29.2,13.5-40,26.2c-10.3,12.1-20.3,28.5-36.7,32.7c-19.3,4.9-36.9-10.5-56.2-9.7
					c-17.8,0.8-31.4,14.9-37.9,30.5c-2.7,6.4-4.4,13.1-5.6,19.9c-0.3,0.3-0.5,0.7-0.6,1.2c-0.3,1.7-0.4,3.4-0.4,5
					c-0.2,1.1-0.3,2.2-0.5,3.2c-0.1,1.1,0.4,1.9,1.1,2.4c2.6,12.1,13,21.7,24.5,26.7c20.5,8.8,43.6,2.7,65,6.1
					c20.4,3.2,38.8,13.6,59.2,16.9c20,3.2,37.7-3.7,56.3-9.8c9.8-3.2,19.9-5.9,30.3-5.3c10.5,0.6,20.3,4.9,30.1,8.4
					c18.7,6.6,36.8,6.4,55.8,1.2c19-5.3,37-13.8,56.2-18.5c10.3-2.5,20.6-3.6,31.1-3.1c11.3,0.5,22.6,2.2,33.9,1.4
					c15.1-1,32.3-8,38.8-22.8C1171.4,394,1161,377.3,1147.2,369.2z"/>
			</g>
			<g>
				<path class="st6" d="M507.1,630.5c19.6-2.6,37.1-14.4,42.2-34.2c4.6-17.8-5.1-34.6-22.8-39.6c-21.7-6.2-42.7,4-63.8,7.2
					c-13.2,2-26.3,0.4-36.6-8.9c-7.6-6.9-13.1-15.6-19.8-23.1c-12.5-13.9-28.5-18.9-46.7-15.3c-18.9,3.8-35.8,14-54.2,19.3
					c-9,2.6-18.6,4.2-27.9,2.3c-11.4-2.3-20.5-9.6-28.3-17.9c-7.3-7.8-13.5-16.4-20.5-24.4c-7.5-8.6-16-16.2-25.3-22.7
					c-18.5-13-40.1-21.4-62.4-24.6c-0.7-0.1-1.4-0.2-2.1-0.3c-19.4,60-28.5,122.8-32.4,186c19.4-5.2,37.7-14.3,57.4-18.4
					c47.9-10,85.4,28.1,131.5,31.2c22.6,1.5,43.5-7.7,63.9-16.4c11-4.7,22.1-9.4,33.8-12.1c13.6-3.1,27.1-2.4,40.7,0.4
					C457.9,623.9,481.9,633.8,507.1,630.5z"/>
			</g>
		</g>
	</g>
	<path class="st7" d="M1193.3,1113.8c0-11.3-7.4-21.2-18.2-24.5c-30.7-9.4-91.4-28.3-110.1-36c-21.7-9,121.7-364.5,163.7-467.2
		c5.4-13.1-4.3-27.5-18.5-27.5h-133.9c-50.8,0-251.2,341.5-346.9,394.3c-50.2,27.7-322.9,33.5-624.9,29.5
		c-1.9,40.7-5.2,81.3-9.2,121.8c-5.5,55.4-11.9,111-15.7,166.8c192.4-1.9,483.8-3.7,607.2,1.7c164.5,7.3,419.2-68.5,488.5-90.3
		c10.7-3.4,18-13.3,18-24.5V1113.8z"/>
	<path class="st8" d="M1610.8,1568.3v-503.7h163.3c-0.3-11.8-0.2-23.7,0.3-35.6h-163.5V175.3c0,0,0,0,0,0c-1.8-0.3-3.6-0.5-5.4-0.8
		c-0.3,0-0.7-0.1-1-0.1c-1.9-0.2-3.7-0.5-5.6-0.6c-1.9-0.2-3.8-0.4-5.8-0.5c-0.3,0-0.7,0-1-0.1c-1.6-0.1-3.3-0.2-4.9-0.3
		c-0.2,0-0.4,0-0.7,0c-1.8-0.1-3.6-0.1-5.4-0.2c-0.1,0-0.1,0-0.2,0c-1.9,0-3.9-0.1-5.8,0V1029h-557.3V263.3c0,0,0,0,0,0
		c-11.9-0.7-23.8-1.6-35.7-2.7V1029H424.9V166.4c-2.6,0.4-5.1,0.9-7.6,1.4c-0.5,0.1-1,0.2-1.5,0.3c-1.1,0.2-2.2,0.4-3.3,0.7
		c-0.4,0.1-0.8,0.2-1.2,0.2c-1.2,0.2-2.4,0.5-3.6,0.8c-0.3,0.1-0.6,0.1-1,0.2c-1.3,0.3-2.5,0.6-3.8,0.9c-0.2,0.1-0.5,0.1-0.7,0.2
		c-1.3,0.3-2.6,0.6-4,1c-0.2,0-0.3,0.1-0.5,0.1c-1.4,0.3-2.8,0.7-4.1,1.1c-0.1,0-0.1,0-0.2,0.1c-1.4,0.4-2.9,0.8-4.3,1.2V1029H101.7
		c-0.8,11.9-1.8,23.7-2.8,35.6h290.2v503.7H102.8c0,0,0,0,0,0c3,10.3,6.2,20.5,9.7,30.5l0,0h1805.7c0.4-2,0.8-4,1.1-6.1
		c0-0.1,0-0.2,0.1-0.3c0.4-2,0.7-4.1,1-6.1c0-0.1,0-0.1,0-0.2c0.3-1.8,0.5-3.7,0.8-5.5c0.1-0.4,0.1-0.9,0.2-1.3
		c0.3-1.9,0.5-3.8,0.7-5.7c0.2-1.7,0.4-3.5,0.5-5.2H1610.8z M982.1,1568.3H424.9v-503.7h557.3V1568.3z M1575.1,1568.3h-557.3v-503.7
		h557.3V1568.3z"/>
	<path class="st9" d="M112.5,1598.8c17.5,50.2,42.3,97.3,76.4,138.9c61.6,75.3,148.5,125.1,238.7,153
		c105,32.5,216.3,34.6,324.7,25.6c40.4-3.3,80.7-8.1,120.9-13.3c104.5-10.5,211.3,6.2,315.2,18.7c107,13,216.2,22.8,323.6,9.1
		c101.6-13,199.4-46.8,278.6-116.1c63.4-55.4,111.4-131.2,127.7-215.9H112.5z"/>
	<path class="st10" d="M1294.5,1736.6c-22.5-25-60.8-20.9-91.1-21.1c-35.3-0.3-70.6-0.6-105.9-0.8c-70.6-0.6-141.2-1.1-211.8-1.7
		c-70.3-0.6-140.6-1.1-210.8-1.7c-70.6-0.6-141.2-1.1-211.8-1.7c-8.1-0.1-16.2-0.1-24.3-0.2c-23.4-10.3-53.2-1-64.5,23
		c-11.7,25.1-1.8,53.4,22,66.9c21.7,12.4,48,13.2,72.3,13.2c35.3,0,70.5,0.1,105.8,0.1c70.5,0.1,141,0.1,211.6,0.2
		c70.2,0.1,140.4,0.1,210.6,0.2c70.5,0.1,141,0.1,211.6,0.2c25.4,0,53.6,1.8,76.6-11.3c9.9-5.7,18.2-14.6,21-25.9
		C1309.1,1761.7,1304.2,1747.4,1294.5,1736.6z"/>
	<path class="st10" d="M1851,1632.3c-12.9-9.8-29.3-12.1-45.1-12.5c-17.7-0.5-35.4-0.2-53.1-0.2c-72-0.2-143.9-0.4-215.9-0.7
		c-18-0.1-36-0.1-54-0.2c-16.8-0.1-34.4-1.4-50.9,2.4c-14.6,3.4-28.6,12.5-34.6,26.7c-6.2,14.6-1.4,31,11.7,40
		c5.7,3.9,12.5,5.2,19.3,4.2c70.1,3.3,140.2,2.7,210.3,2.2c34.8-0.3,69.5-0.5,104.3-0.2c17.8,0.2,35.6,0.6,53.3,0.9
		c8.4,0.1,16.8-0.1,25.1-0.2c7.1-0.1,14.2,0.5,21.2-0.6c12.3-1.9,23.2-10.8,25.3-23.5C1870.6,1655.4,1862.9,1641.4,1851,1632.3z"/>
	<g>
		<path class="st11" d="M546.6,633.5c-0.5-0.6-1-0.8-1.6-0.8c-1.1-1-3.3-0.9-4,0.9c-2.1,5.6-4.5,10.9-7.2,16.1
			c0.1-0.5,0.2-0.9,0.3-1.4c0.2-1.5-2.2-1.5-2.3,0c-1.4,11.9-16.8,15.1-18.8,26.8c-1.1,6.8,2.7,12,7.7,15.7
			c1.4,3.5,2.3,6.3,3.2,10.9c0.6,3.1,0.6,4.9,2.5,7.7c4.5,6.2,15.9,10.1,23,11.2c18.2,2.9,26.2-14.7,26-30.4
			C575.3,667.7,560.5,649.6,546.6,633.5z M515.6,680.4c-1.8-6.7,2.7-11.8,7.3-15.9c2-1.8,4-3.5,5.7-5.3c-1.9,3.2-3.9,6.4-6,9.6
			c-3.7,5.6-6.2,10.8-3.9,17.1C517.3,684.3,516.2,682.5,515.6,680.4z"/>
		<path class="st11" d="M507.9,530.1c-9.3,16.9-14.8,43.1,8.5,51.2c7.1,2.5,10.7-8.7,3.5-11.2c-15-5.3-7.4-24.2-2.1-33.7
			C521.5,529.8,511.6,523.5,507.9,530.1L507.9,530.1z"/>
		
			<linearGradient id="SVGID_2_" gradientUnits="userSpaceOnUse" x1="439.6912" y1="1299.1351" x2="472.3936" y2="1263.5723" gradientTransform="matrix(0.9785 -0.2063 0.2063 0.9785 -256.0056 -181.9975)">
			<stop  offset="0" style="stop-color:#F49D8A"/>
			<stop  offset="1" style="stop-color:#E2756D"/>
		</linearGradient>
		<path class="st12" d="M573.7,678.3c0,0-64.2,177.2-78.9,192.2s-50,81.1-77.2,138.6c-18,38-13.7,60.2-9.9,69.7
			c2.3,5.7,4.5,11.5,6.2,17.4c4.1,13.9,10.7,33.9,13.1,26.2c3.5-11.4-0.6-53.4,6.7-58.5c7.2-5.1,3.9,24.1,3.9,24.1
			c7.3,0.8,11.4-5.6,8.6-36c-2.8-30.3-18.2-30.6,7.8-55.5c17.7-17,63.3-84.7,72.6-103.3c9.3-18.6,47-68.2,47-68.2V678.3z"/>
		<linearGradient id="SVGID_3_" gradientUnits="userSpaceOnUse" x1="472.0164" y1="930.5361" x2="510.666" y2="861.187">
			<stop  offset="0" style="stop-color:#F9FFFF"/>
			<stop  offset="1" style="stop-color:#DAEFF4"/>
		</linearGradient>
		<path class="st13" d="M478.2,883.5c-0.6,0.6-1.3,1.3-2,2.1c-8.1,6.3-16.3,12.6-24.4,18.9c-6.5,5-14.4,10.4-16.9,18.7
			c-2.6,8.8,2.2,16.6,7.1,23.5c5.9,8.4,12.3,17,20,23.8c12.6,11.2,25.2,9.8,32.3-6.1c5.3-11.8,9.6-24.1,13.6-36.6
			c4.3-6.6,7.7-12.2,9.6-15.9c9.3-18.6,45.6-71.4,45.6-71.4V693.7C563.2,693.7,492.9,868.6,478.2,883.5z"/>
		<linearGradient id="SVGID_4_" gradientUnits="userSpaceOnUse" x1="682.0029" y1="962.3681" x2="682.0029" y2="550.7849">
			<stop  offset="0" style="stop-color:#F49D8A"/>
			<stop  offset="1" style="stop-color:#E2756D"/>
		</linearGradient>
		<path class="st14" d="M546.2,651.5c0,0,15.7,27.4,11.8,37.6c-4,10.2-33.5,54.4-52.9,73.2c-19.4,18.8-32.9,41.7-14.1,70.4
			c18.8,28.8,32.2,78.1,29.3,96.9c-2.9,18.8-23.4,66.3-19.9,170.8c3.5,104.5,12.8,190.2,19.9,213.7c7.1,23.5,46.8,324.5,39,355
			s-26.8,65.4-39,71.6c-12.2,6.3-49.9,28.2-43.4,34.3c4.3,4,31.5,3.4,53.5,2.1c17.4-1,32.7-11.8,39.4-27.9
			c10.2-24.4,26.9-48.1,37.4-54.4c16.8-10.2,6.3-53.2-10.2-56.4c-15.6-3,23-165.6-1.6-307.1c-2.9-16.7-4.2-33.7-3.5-50.7l9-217.4
			c0,0-9.4,183.1,29,255.2c38.4,72,67.3,109.6,72,115.8c4.7,6.3,123.7,201.9,133.1,217.6c9.4,15.7,8.2,63.6,8.2,80.8
			c0,12.3-26.8,20.4-42.5,30.4c-6,3.8-3.4,13.1,3.7,13.1h50.1c12.2,0,22-10.1,21.5-22.3c-1-27.9-1.4-74.3,6.6-91.8
			c11.7-25.8,2.3-38.4-21.9-45.4c-21.9-6.4-64.9-181.2-131.2-283.6c-14.6-22.6-23.2-48.6-25.1-75.5c-4.4-60.5-14.3-166.8-31.5-225.6
			c-25-85.3-43.8-100.2-40.7-126.8c3.1-26.6,26.6-89.2,26.6-142.4s-17.2-77.5-36.8-93.1c-19.6-15.7-33.7-65-33.7-65L546.2,651.5z"/>
		<g>
			<path class="st11" d="M1065.8,1341.4l-16.2,9.3l-16-27.8c-1.1-1.9-0.4-4.3,1.5-5.4l9.3-5.4c1.9-1.1,4.3-0.4,5.4,1.5
				L1065.8,1341.4z"/>
			<linearGradient id="SVGID_5_" gradientUnits="userSpaceOnUse" x1="1052.4537" y1="1401.6824" x2="1216.7102" y2="1669.6079">
				<stop  offset="0" style="stop-color:#B25DAC"/>
				<stop  offset="1" style="stop-color:#8E2F83"/>
			</linearGradient>
			<path class="st15" d="M1296,1688.5l-100.9,58.8c-3.9,2.3-9,1-11.3-3L979,1392.7c-2.3-3.9-1-9,3-11.3l93.8-54.6
				c3.9-2.3,9-1,11.3,3L1296,1688.5z"/>
			<linearGradient id="SVGID_6_" gradientUnits="userSpaceOnUse" x1="1261.9965" y1="1525.6953" x2="1188.1194" y2="1574.6709">
				<stop  offset="0" style="stop-color:#B25DAC"/>
				<stop  offset="1" style="stop-color:#8E2F83"/>
			</linearGradient>
			<path class="st16" d="M1330.4,1668.5l-34.4,20L1139,1419l34.4-20c3.5-2,7.9-0.8,9.9,2.6l149.7,257
				C1335.1,1662,1333.9,1666.5,1330.4,1668.5z"/>
			
				<rect x="913.6" y="1064" transform="matrix(0.8641 -0.5034 0.5034 0.8641 -491.849 632.0164)" class="st17" width="21.5" height="325.3"/>
			<path class="st17" d="M1011.2,1435.3c-10.1-43.7-6.8-76.4-6.8-76.8l4.7,0.5c0,0.3-3.2,32.4,6.7,75.2L1011.2,1435.3z"/>
			
				<ellipse transform="matrix(0.8641 -0.5034 0.5034 0.8641 -713.6967 837.5247)" class="st11" cx="1193.9" cy="1740.2" rx="28.2" ry="28.2"/>
			<path class="st11" d="M1045.1,1484.8l-13-41.4c-0.2-0.7-0.7-1.3-1.3-1.8l-15.2-10.9c-1.9-1.3-4.5-0.5-5.3,1.7l-6.2,17.7
				c-0.2,0.7-0.3,1.5,0,2.2l13,41.4c0.6,1.8,2.5,2.8,4.3,2.3l10.7-3.4l10.7-3.4C1044.6,1488.6,1045.6,1486.6,1045.1,1484.8z
				 M1015.8,1447c-2.5,0-4.5-2-4.5-4.5s2-4.5,4.5-4.5c2.5,0,4.5,2,4.5,4.5S1018.3,1447,1015.8,1447z"/>
		</g>
		
			<linearGradient id="SVGID_7_" gradientUnits="userSpaceOnUse" x1="-3201.1404" y1="718.9072" x2="-3256.6199" y2="658.2149" gradientTransform="matrix(-0.9983 5.771121e-02 5.771121e-02 0.9983 -2703.3823 84.4484)">
			<stop  offset="0" style="stop-color:#F49D8A"/>
			<stop  offset="1" style="stop-color:#E2756D"/>
		</linearGradient>
		<path class="st18" d="M511.9,563.3c-0.1-1.1-0.1-2.1-0.1-3.1c-0.8-36,35.7-61.1,69.7-48.9c50.9,18.3,43.9,70.4,35.7,101
			c-9.7,36.5-61.7,47.3-82.2,46.1c-15.6-0.9-19.7-21.1-21.2-46.5c-2.9-0.2-10.1-1.9-10.3-5c-0.2-2.8,6.7-18.7,9.3-24.4
			C512.6,576,512.3,569.5,511.9,563.3z"/>
		<linearGradient id="SVGID_8_" gradientUnits="userSpaceOnUse" x1="627.9832" y1="1272.8639" x2="639.0222" y2="912.769">
			<stop  offset="0" style="stop-color:#BBACD5"/>
			<stop  offset="1" style="stop-color:#B25DAC"/>
		</linearGradient>
		<path class="st19" d="M803.2,1361.6c-48.4-45.9-65.5-112.6-77.4-176c-6.4-34.2-11.9-68.6-20.9-102.3
			c-8.2-30.5-20.6-57.8-34.9-85.8c-11.3-22.2-21.9-44.6-34-66.4c-3.2-9-4.6-16.4-3.9-24.9c-39.8,1.4-86.3-3.7-114.8-7.6
			c2.9,12.8,4,23.9,3,30.9c-1.4,9.4-7.3,25.9-12.3,53.1c-43.6,123.3-10.4,261-62.1,382.3c-1.2,2.8-1,6.4,2.1,8
			c29.4,15.7,62.7,22.5,95.8,18.4c18.1-2.3,37-9.5,55.3-4.7c14.3,3.8,26,14,41.5,13.6c13.9-0.4,25.3-8.9,37.5-14.4
			c19.7-8.9,39.1-1.3,58.6,4c25,6.8,57.9,6.7,67.9-22.5C805.4,1365.4,804.6,1363,803.2,1361.6z"/>
		<g>
			<g>
				<path class="st20" d="M595.2,1179.7c-0.2-42.4-1.3-84.9-6.5-127c-5.3-43.3-14-86.4-8.7-130.2c0.4-3-4.3-3-4.7,0
					c-5.2,43.8,3.4,86.9,8.7,130.2c5.4,43.6,6.4,87.6,6.5,131.5c0.2,67.4-1.5,135.3,7.2,202.1c0.5,0.1,1,0.2,1.4,0.3
					c1.2,0.3,2.3,0.7,3.4,1C593.4,1318.9,595.5,1249,595.2,1179.7z"/>
				<path class="st20" d="M541.8,1302.7c6-40.2,12.8-80,15-120.7c4.7-87.6,3.8-175.8,5.3-263.6c0.1-3-4.6-3-4.7,0
					c-1.5,89.2-0.3,179-5.6,268.1c-2.6,43.4-10.9,85.7-16.6,128.7c-3.3,25.6-5,51.4-2.5,76.9c1.6-0.1,3.1-0.2,4.7-0.3
					C534.6,1362.3,537.4,1332.3,541.8,1302.7z"/>
				<path class="st20" d="M655.1,1306.2c-6.5-44.1-20.6-86.7-25.7-131c-4.9-42.6-1.5-85.6-9.7-127.8c-8.4-43.5-24.2-85.6-24.5-130.4
					c0-3-4.7-3-4.7,0c0.3,45.2,16.2,87.7,24.7,131.7c9,46.3,4.3,93.7,11.4,140.2c7.1,46.9,22.7,92.3,26.5,139.7
					c1.7,21.5,0.9,45.4,6.4,66.5c1.3-0.6,2.5-1.2,3.8-1.8C655.6,1365.8,658.9,1332.5,655.1,1306.2z"/>
				<path class="st20" d="M741.9,1391c2.2,0.5,4.5,0.9,6.7,1.3c-7.9-14.6-15.6-29.3-22.7-44.3c-17.1-36.3-27.1-73.7-31.7-113.5
					c-4.1-35.7-5.3-71.8-10.8-107.4c-5.2-34.2-15.9-65.8-31-96.8c-17.8-36.7-38.5-73.2-39.9-115c-0.1-3-4.8-3-4.7,0
					c1.2,35.8,16.1,68.1,31.8,99.7c18.2,36.8,33.1,72.6,39.3,113.4c6.2,40.2,6.8,81.1,12.5,121.4c5.7,40.6,18.8,77.9,37.1,114.4
					C733,1372.8,737.3,1382,741.9,1391z"/>
				<path class="st20" d="M542.1,919.9c-0.2-3-4.9-3-4.7,0c2.8,42-11.8,81.5-20.6,121.9c-8.8,40.1-7.8,80.8-8.3,121.7
					c-0.5,43.4-5.4,86.3-16.5,128.2c-8,30-21.5,60.4-20,91.6c1.6,0.6,3.2,1.1,4.8,1.6c-2.8-36.8,16.1-74.2,24-109.4
					c8.7-38.4,12.1-77.3,12.5-116.6c0.4-42,0.3-83.2,10.1-124.3C532.2,996.8,544.8,959.4,542.1,919.9z"/>
			</g>
		</g>
		<linearGradient id="SVGID_9_" gradientUnits="userSpaceOnUse" x1="826.8339" y1="1014.3385" x2="756.3536" y2="931.0919">
			<stop  offset="0" style="stop-color:#F49D8A"/>
			<stop  offset="1" style="stop-color:#E2756D"/>
		</linearGradient>
		<path class="st21" d="M648.8,709.9c0,0,28.7,55.8,50,122s33,69.7,45.6,80.1c11,9,50.9,54.4,72.5,97.3c6,11.8,14.4,22,24.7,30
			c8.5,6.6,18,15.7,22,26.2c8.1,21-42,50.2-47.8,28.4s-4.3-35.4-19.6-59c-14.8-22.7-91.9-88.6-108.2-118.4s-80.2-124.9-85.4-157.3
			c-5.2-32.4-6.5-71.8-6.5-71.8L648.8,709.9z"/>
		<path class="st11" d="M607.3,1694.8c16.8-10.2,6.3-53.2-10.2-56.4c0,0-32.5,103.4-54.6,102.9c-6.4-0.2-13.2-1-19.8-2
			c-0.8,0.6-1.5,1.1-2.3,1.4c-12.2,6.3-49.9,28.2-43.4,34.3c4.3,4,31.5,3.4,53.5,2.1c17.4-1,32.7-11.8,39.4-27.9
			C580,1724.8,596.7,1701.2,607.3,1694.8z"/>
		<polygon class="st11" points="614.3,1681.4 599,1778.1 583.2,1778.1 590.8,1696.1 		"/>
		<path class="st11" d="M804.5,1776.1h50.1c12.2,0,22-10.1,21.5-22.3c-1-27.9-1.4-74.3,6.6-91.8c11.7-25.8,2.3-38.4-21.9-45.4
			c-1.3-0.4-2.6-1.3-4-2.7l0,0c0,0,11.9,122.2,0,123.4c-4.6,0.5-10.1,0.8-15.4,0.8c-6.3,9.4-27.5,16.5-40.7,24.9
			C794.7,1766.7,797.3,1776.1,804.5,1776.1z"/>
		<polygon class="st11" points="887.8,1644.4 910.2,1732.5 903.7,1738.4 872,1656.8 		"/>
		<linearGradient id="SVGID_10_" gradientUnits="userSpaceOnUse" x1="547.5579" y1="777.7899" x2="665.3039" y2="828.9367">
			<stop  offset="0" style="stop-color:#F9FFFF"/>
			<stop  offset="1" style="stop-color:#DAEFF4"/>
		</linearGradient>
		<path class="st22" d="M658.9,762.6c0-51.5-16.1-75.8-34.9-91.6c8.5-9.7-2.5-27.1-13.8-18.5c-15.4,11.9-32.9,19.3-52.4,20.9
			c-13.5,1.1-14.9,20.5-3.9,23.2c-9.6,16.6-32.8,49.9-48.9,65.5c-19.4,18.8-32.9,41.7-14.1,70.4c17.3,26.4,30,70.2,29.7,91.7
			c55.5,16.3,96.8-2.7,111.3-11.2c-0.1-2.6-0.1-5.3,0.3-8.1C635.4,878.5,658.9,815.8,658.9,762.6z"/>
		<path class="st17" d="M763.2,918.5c-6.7-8.7-14.7-17.1-23.8-23.3c-0.9-0.6-1.8-1.2-2.6-1.8c-12.9-8.3-23-20.3-28.5-34.6
			c-2.9-7.6-6-16.5-9.4-26.9c-21.3-66.2-50-122-50-122l-52.7-22.5c0,0-14.7,23.1-2.4,71.8c8,31.8,78,127.5,94.2,157.3
			c0.2,0.4,0.5,0.8,0.7,1.2c12.3,32.7,34.4,79.1,59.8,51.6C761.5,955.4,776.8,936.3,763.2,918.5z"/>
		<path class="st11" d="M673.7,666.9c-0.7-5-4-9-7.2-12.8c-2.4-2.9-5.7-5.8-7.5-9.3c2-11.2,15.4-22.8,7.9-34.6
			c-3.3-5.2-9.9-8.3-14.8-11.6c-0.9-0.6-1.7-1.2-2.6-1.8c-2.4-3.1-4.5-6.5-5.7-10.3c-5.2-16.1-5.4-33-14.2-47.9
			c-7.9-13.4-20.1-24.3-34.3-30.7c-30.1-13.5-65.7-3.8-86.8,21c-0.3,0.3-0.4,0.7-0.5,1c-0.5,0.6-0.6,1.5,0,2.4
			c2.3,3.4,4.6,6.8,7.1,10.1c11.1,33,48.2,43.4,80.2,41.7c2,1.1,3.2,3.4,3.8,7.3c-0.7,7.9-2.2,5.8-8,9.3c-2.9,1.7-5,3.3-6.7,6.4
			c-3.2,5.9-2.7,13.6-1,20.8c-0.2,2.5-0.1,5,0.2,7.5c1.4,10.5,8.8,17.4,11.9,27.1c3.3,10.2-1.7,21.3,2.6,31.3c1.4,3.3,3.7,6,6.4,8
			c0.7,2.3,1.9,4.4,3.6,6.6c4.7,5.9,11.2,8.4,18.1,8.4c14.1,2.2,33.7,2.8,42.3-9.6c3.5-5.1,2.7-8.8,2.3-14.4
			c-0.6-7.4,0.9-12.2,2.5-19.1C673.8,671.3,674.1,669.3,673.7,666.9z M520.4,549.2c9.2,10.8,19.9,20,33.2,25.8
			c6.8,3,13.9,4.9,21.1,6.2C552.4,578.6,530.8,569.2,520.4,549.2z M598.6,682c0.1-7.6,1.4-14.9-1.6-22.2
			c-3.2-7.7-8.8-13.9-10.6-22.2c0.5,1.4,1,2.7,1.6,3.9c6.4,15.3,18.6,24.8,16.1,42.7c-0.6,4.6-1.1,9.1-0.5,13.3
			C600.2,693.6,598.5,688,598.6,682z M666.4,614.7c2.8,9.5-5.3,18.1-8.5,27c-1.3-6.2,2-10.8,3.6-16.4c2.7-9.8-2.3-16.4-7.9-23.2
			C659.2,605.4,664.8,609.3,666.4,614.7z"/>
	</g>
	<linearGradient id="SVGID_11_" gradientUnits="userSpaceOnUse" x1="1609.2444" y1="1148.5293" x2="1609.2444" y2="1413.8672">
		<stop  offset="0" style="stop-color:#F49D8A"/>
		<stop  offset="1" style="stop-color:#E2756D"/>
	</linearGradient>
	<path class="st23" d="M1841.8,1293.3c-23.4-45.7-43.6-86.2-55.8-135.7c-8.8-35.4-12.2-71.7-12-108.3
		c-62.9,1.9-113.4,53.6-113.4,116.9V1376H1617v-213.2c0-64.6-52.4-117-117-117h-23.6c-64.6,0-117,52.4-117,117V1376H1339
		c-13,0-23.6,10.6-23.6,23.6v4.8c0,13,10.6,23.6,23.6,23.6h121V1624c0,9.5,7.7,17.3,17.3,17.3h21.7c9.5,0,17.3-7.7,17.3-17.3v-196.2
		h244.2V1624c0,9.5,7.7,17.3,17.3,17.3h23.2c9.5,0,17.3-7.7,17.3-17.3v-196.2h84.7C1887.1,1381.4,1864.1,1336.8,1841.8,1293.3z"/>
</g>
</svg>
